<svg xmlns="http://www.w3.org/2000/svg" width="960" height="754.0" font-family="monospace,Arial,sans-serif">
<rect width="960" height="754.0" fill="#FAFAFA"/>
<text x="480.0" y="22" text-anchor="middle" font-size="14" font-weight="bold" fill="#222">Apple M3 Max vs Apple M3 Max — CPU/GPU Comparison</text>
<rect x="380.0" y="30" width="12" height="10" fill="#4C78A8" rx="2"/>
<text x="395.0" y="39" font-size="9" fill="#333">CPU (NdArray)</text>
<rect x="485.0" y="30" width="12" height="10" fill="#F58518" rx="2"/>
<text x="500.0" y="39" font-size="9" fill="#333">GPU (WGPU/Metal)</text>
<rect x="4" y="52.0" width="952.0" height="266.0" rx="6" fill="white" stroke="#DDD" stroke-width="1"/>
<text x="480.0" y="80.0" text-anchor="middle" font-size="11" font-weight="bold" fill="#333">model_forward</text>
<line x1="227.0" y1="118.0" x2="227.0" y2="278.0" stroke="#EBEBEB" stroke-width="1"/>
<text x="227.0" y="290.0" text-anchor="middle" font-size="8" fill="#999">20.00 µs</text>
<line x1="382.0" y1="118.0" x2="382.0" y2="278.0" stroke="#EBEBEB" stroke-width="1"/>
<text x="382.0" y="290.0" text-anchor="middle" font-size="8" fill="#999">50.00 µs</text>
<line x1="499.3" y1="118.0" x2="499.3" y2="278.0" stroke="#EBEBEB" stroke-width="1"/>
<text x="499.3" y="290.0" text-anchor="middle" font-size="8" fill="#999">100.00 µs</text>
<line x1="616.5" y1="118.0" x2="616.5" y2="278.0" stroke="#EBEBEB" stroke-width="1"/>
<text x="616.5" y="290.0" text-anchor="middle" font-size="8" fill="#999">200.00 µs</text>
<line x1="771.5" y1="118.0" x2="771.5" y2="278.0" stroke="#EBEBEB" stroke-width="1"/>
<text x="771.5" y="290.0" text-anchor="middle" font-size="8" fill="#999">500.00 µs</text>
<line x1="888.7" y1="118.0" x2="888.7" y2="278.0" stroke="#EBEBEB" stroke-width="1"/>
<text x="888.7" y="290.0" text-anchor="middle" font-size="8" fill="#999">1.00 ms</text>
<rect x="185.0" y="118.0" width="135.7" height="11.0" rx="2" fill="#4C78A8" opacity="0.85"/>
<text x="324.7" y="127.0" font-size="7.5" fill="#555">34.79 µs</text>
<rect x="185.0" y="131.0" width="580.4" height="11.0" rx="2" fill="#F58518" opacity="0.85"/>
<text x="769.4" y="140.0" font-size="7.5" fill="#555">482.31 µs</text>
<text x="892.0" y="133.5" font-size="8.5" font-weight="bold" fill="#888">0.07×</text>
<text x="181.0" y="133.5" text-anchor="end" font-size="8.5" fill="#333">16s×10f [32]→2</text>
<rect x="185.0" y="152.0" width="135.1" height="11.0" rx="2" fill="#4C78A8" opacity="0.85"/>
<text x="324.1" y="161.0" font-size="7.5" fill="#555">34.66 µs</text>
<rect x="185.0" y="165.0" width="573.2" height="11.0" rx="2" fill="#F58518" opacity="0.85"/>
<text x="762.2" y="174.0" font-size="7.5" fill="#555">462.40 µs</text>
<text x="892.0" y="167.5" font-size="8.5" font-weight="bold" fill="#888">0.07×</text>
<text x="181.0" y="167.5" text-anchor="end" font-size="8.5" fill="#333">64s×50f [64]→2</text>
<rect x="185.0" y="186.0" width="222.8" height="11.0" rx="2" fill="#4C78A8" opacity="0.85"/>
<text x="411.8" y="195.0" font-size="7.5" fill="#555">58.22 µs</text>
<rect x="185.0" y="199.0" width="621.3" height="11.0" rx="2" fill="#F58518" opacity="0.85"/>
<text x="810.3" y="208.0" font-size="7.5" fill="#555">614.21 µs</text>
<text x="892.0" y="201.5" font-size="8.5" font-weight="bold" fill="#888">0.09×</text>
<text x="181.0" y="201.5" text-anchor="end" font-size="8.5" fill="#333">128s×50f [128]→2</text>
<rect x="185.0" y="220.0" width="273.5" height="11.0" rx="2" fill="#4C78A8" opacity="0.85"/>
<text x="462.5" y="229.0" font-size="7.5" fill="#555">78.59 µs</text>
<rect x="185.0" y="233.0" width="628.9" height="11.0" rx="2" fill="#F58518" opacity="0.85"/>
<text x="817.9" y="242.0" font-size="7.5" fill="#555">642.49 µs</text>
<text x="892.0" y="235.5" font-size="8.5" font-weight="bold" fill="#888">0.12×</text>
<text x="181.0" y="235.5" text-anchor="end" font-size="8.5" fill="#333">64s×100f [128,64]→3</text>
<rect x="185.0" y="254.0" width="483.1" height="11.0" rx="2" fill="#4C78A8" opacity="0.85"/>
<text x="672.1" y="263.0" font-size="7.5" fill="#555">271.33 µs</text>
<rect x="185.0" y="267.0" width="596.6" height="11.0" rx="2" fill="#F58518" opacity="0.85"/>
<text x="785.6" y="276.0" font-size="7.5" fill="#555">530.90 µs</text>
<text x="892.0" y="269.5" font-size="8.5" font-weight="bold" fill="#888">0.51×</text>
<text x="181.0" y="269.5" text-anchor="end" font-size="8.5" fill="#333">256s×100f [256,128]→2</text>
<line x1="185.0" y1="278.0" x2="888.0" y2="278.0" stroke="#BBB" stroke-width="1"/>
<rect x="4" y="328.0" width="952.0" height="198.0" rx="6" fill="white" stroke="#DDD" stroke-width="1"/>
<text x="480.0" y="356.0" text-anchor="middle" font-size="11" font-weight="bold" fill="#333">normalize_tensor</text>
<line x1="224.7" y1="394.0" x2="224.7" y2="486.0" stroke="#EBEBEB" stroke-width="1"/>
<text x="224.7" y="498.0" text-anchor="middle" font-size="8" fill="#999">2.00 µs</text>
<line x1="319.5" y1="394.0" x2="319.5" y2="486.0" stroke="#EBEBEB" stroke-width="1"/>
<text x="319.5" y="498.0" text-anchor="middle" font-size="8" fill="#999">5.00 µs</text>
<line x1="391.1" y1="394.0" x2="391.1" y2="486.0" stroke="#EBEBEB" stroke-width="1"/>
<text x="391.1" y="498.0" text-anchor="middle" font-size="8" fill="#999">10.00 µs</text>
<line x1="462.8" y1="394.0" x2="462.8" y2="486.0" stroke="#EBEBEB" stroke-width="1"/>
<text x="462.8" y="498.0" text-anchor="middle" font-size="8" fill="#999">20.00 µs</text>
<line x1="557.5" y1="394.0" x2="557.5" y2="486.0" stroke="#EBEBEB" stroke-width="1"/>
<text x="557.5" y="498.0" text-anchor="middle" font-size="8" fill="#999">50.00 µs</text>
<line x1="629.2" y1="394.0" x2="629.2" y2="486.0" stroke="#EBEBEB" stroke-width="1"/>
<text x="629.2" y="498.0" text-anchor="middle" font-size="8" fill="#999">100.00 µs</text>
<line x1="700.9" y1="394.0" x2="700.9" y2="486.0" stroke="#EBEBEB" stroke-width="1"/>
<text x="700.9" y="498.0" text-anchor="middle" font-size="8" fill="#999">200.00 µs</text>
<line x1="795.6" y1="394.0" x2="795.6" y2="486.0" stroke="#EBEBEB" stroke-width="1"/>
<text x="795.6" y="498.0" text-anchor="middle" font-size="8" fill="#999">500.00 µs</text>
<line x1="867.3" y1="394.0" x2="867.3" y2="486.0" stroke="#EBEBEB" stroke-width="1"/>
<text x="867.3" y="498.0" text-anchor="middle" font-size="8" fill="#999">1.00 ms</text>
<rect x="185.0" y="394.0" width="82.6" height="11.0" rx="2" fill="#4C78A8" opacity="0.85"/>
<text x="271.6" y="403.0" font-size="7.5" fill="#555">3.03 µs</text>
<rect x="185.0" y="407.0" width="657.7" height="11.0" rx="2" fill="#F58518" opacity="0.85"/>
<text x="846.7" y="416.0" font-size="7.5" fill="#555">788.45 µs</text>
<text x="892.0" y="409.5" font-size="8.5" font-weight="bold" fill="#888">0.00×</text>
<text x="181.0" y="409.5" text-anchor="end" font-size="8.5" fill="#333">n=512</text>
<rect x="185.0" y="428.0" width="203.6" height="11.0" rx="2" fill="#4C78A8" opacity="0.85"/>
<text x="392.6" y="437.0" font-size="7.5" fill="#555">9.75 µs</text>
<rect x="185.0" y="441.0" width="642.7" height="11.0" rx="2" fill="#F58518" opacity="0.85"/>
<text x="831.7" y="450.0" font-size="7.5" fill="#555">681.95 µs</text>
<text x="892.0" y="443.5" font-size="8.5" font-weight="bold" fill="#888">0.01×</text>
<text x="181.0" y="443.5" text-anchor="end" font-size="8.5" fill="#333">n=4096</text>
<rect x="185.0" y="462.0" width="412.2" height="11.0" rx="2" fill="#4C78A8" opacity="0.85"/>
<text x="601.2" y="471.0" font-size="7.5" fill="#555">73.37 µs</text>
<rect x="185.0" y="475.0" width="643.8" height="11.0" rx="2" fill="#F58518" opacity="0.85"/>
<text x="832.8" y="484.0" font-size="7.5" fill="#555">689.35 µs</text>
<text x="892.0" y="477.5" font-size="8.5" font-weight="bold" fill="#888">0.11×</text>
<text x="181.0" y="477.5" text-anchor="end" font-size="8.5" fill="#333">n=32768</text>
<line x1="185.0" y1="486.0" x2="888.0" y2="486.0" stroke="#BBB" stroke-width="1"/>
<rect x="4" y="536.0" width="952.0" height="198.0" rx="6" fill="white" stroke="#DDD" stroke-width="1"/>
<text x="480.0" y="564.0" text-anchor="middle" font-size="11" font-weight="bold" fill="#333">layer_normalize</text>
<line x1="226.9" y1="602.0" x2="226.9" y2="694.0" stroke="#EBEBEB" stroke-width="1"/>
<text x="226.9" y="706.0" text-anchor="middle" font-size="8" fill="#999">10.00 µs</text>
<line x1="325.7" y1="602.0" x2="325.7" y2="694.0" stroke="#EBEBEB" stroke-width="1"/>
<text x="325.7" y="706.0" text-anchor="middle" font-size="8" fill="#999">20.00 µs</text>
<line x1="456.3" y1="602.0" x2="456.3" y2="694.0" stroke="#EBEBEB" stroke-width="1"/>
<text x="456.3" y="706.0" text-anchor="middle" font-size="8" fill="#999">50.00 µs</text>
<line x1="555.0" y1="602.0" x2="555.0" y2="694.0" stroke="#EBEBEB" stroke-width="1"/>
<text x="555.0" y="706.0" text-anchor="middle" font-size="8" fill="#999">100.00 µs</text>
<line x1="653.8" y1="602.0" x2="653.8" y2="694.0" stroke="#EBEBEB" stroke-width="1"/>
<text x="653.8" y="706.0" text-anchor="middle" font-size="8" fill="#999">200.00 µs</text>
<line x1="784.4" y1="602.0" x2="784.4" y2="694.0" stroke="#EBEBEB" stroke-width="1"/>
<text x="784.4" y="706.0" text-anchor="middle" font-size="8" fill="#999">500.00 µs</text>
<line x1="883.1" y1="602.0" x2="883.1" y2="694.0" stroke="#EBEBEB" stroke-width="1"/>
<text x="883.1" y="706.0" text-anchor="middle" font-size="8" fill="#999">1.00 ms</text>
<rect x="185.0" y="602.0" width="113.8" height="11.0" rx="2" fill="#4C78A8" opacity="0.85"/>
<text x="302.8" y="611.0" font-size="7.5" fill="#555">16.56 µs</text>
<rect x="185.0" y="615.0" width="640.6" height="11.0" rx="2" fill="#F58518" opacity="0.85"/>
<text x="829.6" y="624.0" font-size="7.5" fill="#555">667.58 µs</text>
<text x="892.0" y="617.5" font-size="8.5" font-weight="bold" fill="#888">0.02×</text>
<text x="181.0" y="617.5" text-anchor="end" font-size="8.5" fill="#333">128×64</text>
<rect x="185.0" y="636.0" width="394.8" height="11.0" rx="2" fill="#4C78A8" opacity="0.85"/>
<text x="583.8" y="645.0" font-size="7.5" fill="#555">119.01 µs</text>
<rect x="185.0" y="649.0" width="631.4" height="11.0" rx="2" fill="#F58518" opacity="0.85"/>
<text x="820.4" y="658.0" font-size="7.5" fill="#555">626.13 µs</text>
<text x="892.0" y="651.5" font-size="8.5" font-weight="bold" fill="#888">0.19×</text>
<text x="181.0" y="651.5" text-anchor="end" font-size="8.5" fill="#333">512×128</text>
<rect x="185.0" y="670.0" width="574.8" height="11.0" rx="2" fill="#4C78A8" opacity="0.85"/>
<text x="763.8" y="679.0" font-size="7.5" fill="#555">420.88 µs</text>
<rect x="185.0" y="683.0" width="640.5" height="11.0" rx="2" fill="#F58518" opacity="0.85"/>
<text x="829.5" y="692.0" font-size="7.5" fill="#555">667.16 µs</text>
<text x="892.0" y="685.5" font-size="8.5" font-weight="bold" fill="#888">0.63×</text>
<text x="181.0" y="685.5" text-anchor="end" font-size="8.5" fill="#333">1000×256</text>
<line x1="185.0" y1="694.0" x2="888.0" y2="694.0" stroke="#BBB" stroke-width="1"/>
</svg>
