<svg xmlns="http://www.w3.org/2000/svg" width="960" height="698" font-family="monospace,Arial,sans-serif">
<rect width="960" height="698" fill="#FAFAFA"/>
<text x="480" y="30" text-anchor="middle" font-size="15" font-weight="bold" fill="#222">CPU: Apple M3 Max — fast-umap Benchmark Results</text>
<rect x="4.0" y="50.0" width="472.0" height="206.0" rx="6" fill="white" stroke="#DDD" stroke-width="1"/>
<text x="240.0" y="68.0" text-anchor="middle" font-size="10.5" font-weight="bold" fill="#333">normalize_data</text>
<line x1="204.8" y1="84.0" x2="204.8" y2="224.0" stroke="#EEE" stroke-width="1"/>
<text x="204.8" y="236.0" text-anchor="middle" font-size="8" fill="#888">500.00 µs</text>
<line x1="247.7" y1="84.0" x2="247.7" y2="224.0" stroke="#EEE" stroke-width="1"/>
<text x="247.7" y="236.0" text-anchor="middle" font-size="8" fill="#888">1.00 ms</text>
<line x1="290.5" y1="84.0" x2="290.5" y2="224.0" stroke="#EEE" stroke-width="1"/>
<text x="290.5" y="236.0" text-anchor="middle" font-size="8" fill="#888">2.00 ms</text>
<line x1="347.1" y1="84.0" x2="347.1" y2="224.0" stroke="#EEE" stroke-width="1"/>
<text x="347.1" y="236.0" text-anchor="middle" font-size="8" fill="#888">5.00 ms</text>
<line x1="389.9" y1="84.0" x2="389.9" y2="224.0" stroke="#EEE" stroke-width="1"/>
<text x="389.9" y="236.0" text-anchor="middle" font-size="8" fill="#888">10.00 ms</text>
<line x1="432.8" y1="84.0" x2="432.8" y2="224.0" stroke="#EEE" stroke-width="1"/>
<text x="432.8" y="236.0" text-anchor="middle" font-size="8" fill="#888">20.00 ms</text>
<rect x="170.0" y="84.0" width="36.9" height="31.2" rx="2" fill="#4C78A8" opacity="0.80"/>
<line x1="181.9" y1="99.6" x2="246.8" y2="99.6" stroke="#555" stroke-width="1.2"/>
<line x1="181.9" y1="96.6" x2="181.9" y2="102.6" stroke="#555" stroke-width="1.2"/>
<line x1="246.8" y1="96.6" x2="246.8" y2="102.6" stroke="#555" stroke-width="1.2"/>
<text x="166.0" y="103.1" text-anchor="end" font-size="8.5" fill="#333">100×10</text>
<text x="210.9" y="103.1" font-size="8" fill="#555">517.45 µs</text>
<rect x="170.0" y="120.2" width="129.4" height="31.2" rx="2" fill="#4C78A8" opacity="0.80"/>
<line x1="288.1" y1="135.9" x2="310.6" y2="135.9" stroke="#555" stroke-width="1.2"/>
<line x1="288.1" y1="132.9" x2="288.1" y2="138.9" stroke="#555" stroke-width="1.2"/>
<line x1="310.6" y1="132.9" x2="310.6" y2="138.9" stroke="#555" stroke-width="1.2"/>
<text x="166.0" y="139.4" text-anchor="end" font-size="8.5" fill="#333">500×30</text>
<text x="303.4" y="139.4" font-size="8" fill="#555">2.31 ms</text>
<rect x="170.0" y="156.5" width="174.3" height="31.2" rx="2" fill="#4C78A8" opacity="0.80"/>
<line x1="338.6" y1="172.1" x2="356.2" y2="172.1" stroke="#555" stroke-width="1.2"/>
<line x1="338.6" y1="169.1" x2="338.6" y2="175.1" stroke="#555" stroke-width="1.2"/>
<line x1="356.2" y1="169.1" x2="356.2" y2="175.1" stroke="#555" stroke-width="1.2"/>
<text x="166.0" y="175.6" text-anchor="end" font-size="8.5" fill="#333">1000×50</text>
<text x="348.3" y="175.6" font-size="8" fill="#555">4.78 ms</text>
<rect x="170.0" y="192.8" width="257.0" height="31.2" rx="2" fill="#4C78A8" opacity="0.80"/>
<line x1="420.7" y1="208.4" x2="430.9" y2="208.4" stroke="#555" stroke-width="1.2"/>
<line x1="420.7" y1="205.4" x2="420.7" y2="211.4" stroke="#555" stroke-width="1.2"/>
<line x1="430.9" y1="205.4" x2="430.9" y2="211.4" stroke="#555" stroke-width="1.2"/>
<text x="166.0" y="211.9" text-anchor="end" font-size="8.5" fill="#333">5000×100</text>
<text x="431.0" y="211.9" font-size="8" fill="#555">18.23 ms</text>
<line x1="170.0" y1="224.0" x2="450.0" y2="224.0" stroke="#BBB" stroke-width="1"/>
<rect x="484.0" y="50.0" width="472.0" height="206.0" rx="6" fill="white" stroke="#DDD" stroke-width="1"/>
<text x="720.0" y="68.0" text-anchor="middle" font-size="10.5" font-weight="bold" fill="#333">generate_test_data</text>
<line x1="646.1" y1="84.0" x2="646.1" y2="224.0" stroke="#EEE" stroke-width="1"/>
<text x="646.1" y="236.0" text-anchor="middle" font-size="8" fill="#888">2.00 µs</text>
<line x1="680.8" y1="84.0" x2="680.8" y2="224.0" stroke="#EEE" stroke-width="1"/>
<text x="680.8" y="236.0" text-anchor="middle" font-size="8" fill="#888">5.00 µs</text>
<line x1="707.0" y1="84.0" x2="707.0" y2="224.0" stroke="#EEE" stroke-width="1"/>
<text x="707.0" y="236.0" text-anchor="middle" font-size="8" fill="#888">10.00 µs</text>
<line x1="733.3" y1="84.0" x2="733.3" y2="224.0" stroke="#EEE" stroke-width="1"/>
<text x="733.3" y="236.0" text-anchor="middle" font-size="8" fill="#888">20.00 µs</text>
<line x1="768.0" y1="84.0" x2="768.0" y2="224.0" stroke="#EEE" stroke-width="1"/>
<text x="768.0" y="236.0" text-anchor="middle" font-size="8" fill="#888">50.00 µs</text>
<line x1="794.2" y1="84.0" x2="794.2" y2="224.0" stroke="#EEE" stroke-width="1"/>
<text x="794.2" y="236.0" text-anchor="middle" font-size="8" fill="#888">100.00 µs</text>
<line x1="820.5" y1="84.0" x2="820.5" y2="224.0" stroke="#EEE" stroke-width="1"/>
<text x="820.5" y="236.0" text-anchor="middle" font-size="8" fill="#888">200.00 µs</text>
<line x1="855.2" y1="84.0" x2="855.2" y2="224.0" stroke="#EEE" stroke-width="1"/>
<text x="855.2" y="236.0" text-anchor="middle" font-size="8" fill="#888">500.00 µs</text>
<line x1="881.5" y1="84.0" x2="881.5" y2="224.0" stroke="#EEE" stroke-width="1"/>
<text x="881.5" y="236.0" text-anchor="middle" font-size="8" fill="#888">1.00 ms</text>
<line x1="907.7" y1="84.0" x2="907.7" y2="224.0" stroke="#EEE" stroke-width="1"/>
<text x="907.7" y="236.0" text-anchor="middle" font-size="8" fill="#888">2.00 ms</text>
<rect x="650.0" y="84.0" width="22.6" height="31.2" rx="2" fill="#F58518" opacity="0.80"/>
<line x1="668.6" y1="99.6" x2="687.2" y2="99.6" stroke="#555" stroke-width="1.2"/>
<line x1="668.6" y1="96.6" x2="668.6" y2="102.6" stroke="#555" stroke-width="1.2"/>
<line x1="687.2" y1="96.6" x2="687.2" y2="102.6" stroke="#555" stroke-width="1.2"/>
<text x="646.0" y="103.1" text-anchor="end" font-size="8.5" fill="#333">100×10</text>
<text x="676.6" y="103.1" font-size="8" fill="#555">4.03 µs</text>
<rect x="650.0" y="120.2" width="123.5" height="31.2" rx="2" fill="#F58518" opacity="0.80"/>
<line x1="772.5" y1="135.9" x2="776.1" y2="135.9" stroke="#555" stroke-width="1.2"/>
<line x1="772.5" y1="132.9" x2="772.5" y2="138.9" stroke="#555" stroke-width="1.2"/>
<line x1="776.1" y1="132.9" x2="776.1" y2="138.9" stroke="#555" stroke-width="1.2"/>
<text x="646.0" y="139.4" text-anchor="end" font-size="8.5" fill="#333">500×30</text>
<text x="777.5" y="139.4" font-size="8" fill="#555">57.80 µs</text>
<rect x="650.0" y="156.5" width="180.2" height="31.2" rx="2" fill="#F58518" opacity="0.80"/>
<line x1="828.4" y1="172.1" x2="834.3" y2="172.1" stroke="#555" stroke-width="1.2"/>
<line x1="828.4" y1="169.1" x2="828.4" y2="175.1" stroke="#555" stroke-width="1.2"/>
<line x1="834.3" y1="169.1" x2="834.3" y2="175.1" stroke="#555" stroke-width="1.2"/>
<text x="646.0" y="175.6" text-anchor="end" font-size="8.5" fill="#333">1000×50</text>
<text x="834.2" y="175.6" font-size="8" fill="#555">258.11 µs</text>
<rect x="650.0" y="192.8" width="265.9" height="31.2" rx="2" fill="#F58518" opacity="0.80"/>
<line x1="915.5" y1="208.4" x2="916.8" y2="208.4" stroke="#555" stroke-width="1.2"/>
<line x1="915.5" y1="205.4" x2="915.5" y2="211.4" stroke="#555" stroke-width="1.2"/>
<line x1="916.8" y1="205.4" x2="916.8" y2="211.4" stroke="#555" stroke-width="1.2"/>
<text x="646.0" y="211.9" text-anchor="end" font-size="8.5" fill="#333">5000×100</text>
<text x="919.9" y="211.9" font-size="8" fill="#555">2.48 ms</text>
<line x1="650.0" y1="224.0" x2="930.0" y2="224.0" stroke="#BBB" stroke-width="1"/>
<rect x="4.0" y="260.0" width="472.0" height="206.0" rx="6" fill="white" stroke="#DDD" stroke-width="1"/>
<text x="240.0" y="278.0" text-anchor="middle" font-size="10.5" font-weight="bold" fill="#333">tensor_convert (Vec↔Tensor)</text>
<line x1="213.1" y1="294.0" x2="213.1" y2="434.0" stroke="#EEE" stroke-width="1"/>
<text x="213.1" y="446.0" text-anchor="middle" font-size="8" fill="#888">5.00 µs</text>
<line x1="265.7" y1="294.0" x2="265.7" y2="434.0" stroke="#EEE" stroke-width="1"/>
<text x="265.7" y="446.0" text-anchor="middle" font-size="8" fill="#888">10.00 µs</text>
<line x1="318.4" y1="294.0" x2="318.4" y2="434.0" stroke="#EEE" stroke-width="1"/>
<text x="318.4" y="446.0" text-anchor="middle" font-size="8" fill="#888">20.00 µs</text>
<line x1="387.9" y1="294.0" x2="387.9" y2="434.0" stroke="#EEE" stroke-width="1"/>
<text x="387.9" y="446.0" text-anchor="middle" font-size="8" fill="#888">50.00 µs</text>
<line x1="440.6" y1="294.0" x2="440.6" y2="434.0" stroke="#EEE" stroke-width="1"/>
<text x="440.6" y="446.0" text-anchor="middle" font-size="8" fill="#888">100.00 µs</text>
<rect x="170.0" y="294.0" width="45.4" height="43.3" rx="2" fill="#E45756" opacity="0.80"/>
<line x1="214.3" y1="315.7" x2="218.0" y2="315.7" stroke="#555" stroke-width="1.2"/>
<line x1="214.3" y1="312.7" x2="214.3" y2="318.7" stroke="#555" stroke-width="1.2"/>
<line x1="218.0" y1="312.7" x2="218.0" y2="318.7" stroke="#555" stroke-width="1.2"/>
<text x="166.0" y="319.2" text-anchor="end" font-size="8.5" fill="#333">100×10</text>
<text x="219.4" y="319.2" font-size="8" fill="#555">5.16 µs</text>
<rect x="170.0" y="342.3" width="186.4" height="43.3" rx="2" fill="#E45756" opacity="0.80"/>
<line x1="355.0" y1="364.0" x2="362.6" y2="364.0" stroke="#555" stroke-width="1.2"/>
<line x1="355.0" y1="361.0" x2="355.0" y2="367.0" stroke="#555" stroke-width="1.2"/>
<line x1="362.6" y1="361.0" x2="362.6" y2="367.0" stroke="#555" stroke-width="1.2"/>
<text x="166.0" y="367.5" text-anchor="end" font-size="8.5" fill="#333">500×30</text>
<text x="360.4" y="367.5" font-size="8" fill="#555">33.01 µs</text>
<rect x="170.0" y="390.7" width="251.8" height="43.3" rx="2" fill="#E45756" opacity="0.80"/>
<line x1="418.3" y1="412.3" x2="432.2" y2="412.3" stroke="#555" stroke-width="1.2"/>
<line x1="418.3" y1="409.3" x2="418.3" y2="415.3" stroke="#555" stroke-width="1.2"/>
<line x1="432.2" y1="409.3" x2="432.2" y2="415.3" stroke="#555" stroke-width="1.2"/>
<text x="166.0" y="415.8" text-anchor="end" font-size="8.5" fill="#333">1000×50</text>
<text x="425.8" y="415.8" font-size="8" fill="#555">78.06 µs</text>
<line x1="170.0" y1="434.0" x2="450.0" y2="434.0" stroke="#BBB" stroke-width="1"/>
<rect x="484.0" y="260.0" width="472.0" height="206.0" rx="6" fill="white" stroke="#DDD" stroke-width="1"/>
<text x="720.0" y="278.0" text-anchor="middle" font-size="10.5" font-weight="bold" fill="#333">model_forward (CPU / NdArray)</text>
<line x1="655.5" y1="294.0" x2="655.5" y2="434.0" stroke="#EEE" stroke-width="1"/>
<text x="655.5" y="446.0" text-anchor="middle" font-size="8" fill="#888">20.00 µs</text>
<line x1="737.8" y1="294.0" x2="737.8" y2="434.0" stroke="#EEE" stroke-width="1"/>
<text x="737.8" y="446.0" text-anchor="middle" font-size="8" fill="#888">50.00 µs</text>
<line x1="800.0" y1="294.0" x2="800.0" y2="434.0" stroke="#EEE" stroke-width="1"/>
<text x="800.0" y="446.0" text-anchor="middle" font-size="8" fill="#888">100.00 µs</text>
<line x1="862.3" y1="294.0" x2="862.3" y2="434.0" stroke="#EEE" stroke-width="1"/>
<text x="862.3" y="446.0" text-anchor="middle" font-size="8" fill="#888">200.00 µs</text>
<line x1="944.5" y1="294.0" x2="944.5" y2="434.0" stroke="#EEE" stroke-width="1"/>
<text x="944.5" y="446.0" text-anchor="middle" font-size="8" fill="#888">500.00 µs</text>
<rect x="650.0" y="294.0" width="54.6" height="24.0" rx="2" fill="#72B7B2" opacity="0.80"/>
<line x1="661.5" y1="306.0" x2="747.6" y2="306.0" stroke="#555" stroke-width="1.2"/>
<line x1="661.5" y1="303.0" x2="661.5" y2="309.0" stroke="#555" stroke-width="1.2"/>
<line x1="747.6" y1="303.0" x2="747.6" y2="309.0" stroke="#555" stroke-width="1.2"/>
<text x="646.0" y="309.5" text-anchor="end" font-size="8.5" fill="#333">16s×10f [32]→2</text>
<text x="708.6" y="309.5" font-size="8" fill="#555">34.54 µs</text>
<rect x="650.0" y="323.0" width="53.7" height="24.0" rx="2" fill="#72B7B2" opacity="0.80"/>
<line x1="681.4" y1="335.0" x2="739.9" y2="335.0" stroke="#555" stroke-width="1.2"/>
<line x1="681.4" y1="332.0" x2="681.4" y2="338.0" stroke="#555" stroke-width="1.2"/>
<line x1="739.9" y1="332.0" x2="739.9" y2="338.0" stroke="#555" stroke-width="1.2"/>
<text x="646.0" y="338.5" text-anchor="end" font-size="8.5" fill="#333">64s×50f [64]→2</text>
<text x="707.7" y="338.5" font-size="8" fill="#555">34.19 µs</text>
<rect x="650.0" y="352.0" width="102.1" height="24.0" rx="2" fill="#72B7B2" opacity="0.80"/>
<line x1="747.8" y1="364.0" x2="760.3" y2="364.0" stroke="#555" stroke-width="1.2"/>
<line x1="747.8" y1="361.0" x2="747.8" y2="367.0" stroke="#555" stroke-width="1.2"/>
<line x1="760.3" y1="361.0" x2="760.3" y2="367.0" stroke="#555" stroke-width="1.2"/>
<text x="646.0" y="367.5" text-anchor="end" font-size="8.5" fill="#333">128s×50f [128]→2</text>
<text x="756.1" y="367.5" font-size="8" fill="#555">58.62 µs</text>
<rect x="650.0" y="381.0" width="130.3" height="24.0" rx="2" fill="#72B7B2" opacity="0.80"/>
<line x1="768.0" y1="393.0" x2="805.4" y2="393.0" stroke="#555" stroke-width="1.2"/>
<line x1="768.0" y1="390.0" x2="768.0" y2="396.0" stroke="#555" stroke-width="1.2"/>
<line x1="805.4" y1="390.0" x2="805.4" y2="396.0" stroke="#555" stroke-width="1.2"/>
<text x="646.0" y="396.5" text-anchor="end" font-size="8.5" fill="#333">64s×100f [128,64]→3</text>
<text x="784.3" y="396.5" font-size="8" fill="#555">80.29 µs</text>
<rect x="650.0" y="410.0" width="246.6" height="24.0" rx="2" fill="#72B7B2" opacity="0.80"/>
<line x1="892.1" y1="422.0" x2="901.6" y2="422.0" stroke="#555" stroke-width="1.2"/>
<line x1="892.1" y1="419.0" x2="892.1" y2="425.0" stroke="#555" stroke-width="1.2"/>
<line x1="901.6" y1="419.0" x2="901.6" y2="425.0" stroke="#555" stroke-width="1.2"/>
<text x="646.0" y="425.5" text-anchor="end" font-size="8.5" fill="#333">256s×100f [256,128]→2</text>
<text x="900.6" y="425.5" font-size="8" fill="#555">293.25 µs</text>
<line x1="650.0" y1="434.0" x2="930.0" y2="434.0" stroke="#BBB" stroke-width="1"/>
<rect x="4.0" y="470.0" width="472.0" height="206.0" rx="6" fill="white" stroke="#DDD" stroke-width="1"/>
<text x="240.0" y="488.0" text-anchor="middle" font-size="10.5" font-weight="bold" fill="#333">normalize_tensor (1-D min-max)</text>
<line x1="165.7" y1="504.0" x2="165.7" y2="644.0" stroke="#EEE" stroke-width="1"/>
<text x="165.7" y="656.0" text-anchor="middle" font-size="8" fill="#888">1.00 µs</text>
<line x1="208.3" y1="504.0" x2="208.3" y2="644.0" stroke="#EEE" stroke-width="1"/>
<text x="208.3" y="656.0" text-anchor="middle" font-size="8" fill="#888">2.00 µs</text>
<line x1="264.7" y1="504.0" x2="264.7" y2="644.0" stroke="#EEE" stroke-width="1"/>
<text x="264.7" y="656.0" text-anchor="middle" font-size="8" fill="#888">5.00 µs</text>
<line x1="307.3" y1="504.0" x2="307.3" y2="644.0" stroke="#EEE" stroke-width="1"/>
<text x="307.3" y="656.0" text-anchor="middle" font-size="8" fill="#888">10.00 µs</text>
<line x1="349.9" y1="504.0" x2="349.9" y2="644.0" stroke="#EEE" stroke-width="1"/>
<text x="349.9" y="656.0" text-anchor="middle" font-size="8" fill="#888">20.00 µs</text>
<line x1="406.2" y1="504.0" x2="406.2" y2="644.0" stroke="#EEE" stroke-width="1"/>
<text x="406.2" y="656.0" text-anchor="middle" font-size="8" fill="#888">50.00 µs</text>
<line x1="448.8" y1="504.0" x2="448.8" y2="644.0" stroke="#EEE" stroke-width="1"/>
<text x="448.8" y="656.0" text-anchor="middle" font-size="8" fill="#888">100.00 µs</text>
<rect x="170.0" y="504.0" width="36.8" height="31.2" rx="2" fill="#54A24B" opacity="0.80"/>
<line x1="204.4" y1="519.6" x2="216.7" y2="519.6" stroke="#555" stroke-width="1.2"/>
<line x1="204.4" y1="516.6" x2="204.4" y2="522.6" stroke="#555" stroke-width="1.2"/>
<line x1="216.7" y1="516.6" x2="216.7" y2="522.6" stroke="#555" stroke-width="1.2"/>
<text x="166.0" y="523.1" text-anchor="end" font-size="8.5" fill="#333">n=64</text>
<text x="210.8" y="523.1" font-size="8" fill="#555">1.95 µs</text>
<rect x="170.0" y="540.2" width="60.3" height="31.2" rx="2" fill="#54A24B" opacity="0.80"/>
<line x1="228.8" y1="555.9" x2="233.3" y2="555.9" stroke="#555" stroke-width="1.2"/>
<line x1="228.8" y1="552.9" x2="228.8" y2="558.9" stroke="#555" stroke-width="1.2"/>
<line x1="233.3" y1="552.9" x2="233.3" y2="558.9" stroke="#555" stroke-width="1.2"/>
<text x="166.0" y="559.4" text-anchor="end" font-size="8.5" fill="#333">n=512</text>
<text x="234.3" y="559.4" font-size="8" fill="#555">2.86 µs</text>
<rect x="170.0" y="576.5" width="134.7" height="31.2" rx="2" fill="#54A24B" opacity="0.80"/>
<line x1="304.1" y1="592.1" x2="308.8" y2="592.1" stroke="#555" stroke-width="1.2"/>
<line x1="304.1" y1="589.1" x2="304.1" y2="595.1" stroke="#555" stroke-width="1.2"/>
<line x1="308.8" y1="589.1" x2="308.8" y2="595.1" stroke="#555" stroke-width="1.2"/>
<text x="166.0" y="595.6" text-anchor="end" font-size="8.5" fill="#333">n=4096</text>
<text x="308.7" y="595.6" font-size="8" fill="#555">9.59 µs</text>
<rect x="170.0" y="612.8" width="257.2" height="31.2" rx="2" fill="#54A24B" opacity="0.80"/>
<line x1="426.9" y1="628.4" x2="427.5" y2="628.4" stroke="#555" stroke-width="1.2"/>
<line x1="426.9" y1="625.4" x2="426.9" y2="631.4" stroke="#555" stroke-width="1.2"/>
<line x1="427.5" y1="625.4" x2="427.5" y2="631.4" stroke="#555" stroke-width="1.2"/>
<text x="166.0" y="631.9" text-anchor="end" font-size="8.5" fill="#333">n=32768</text>
<text x="431.2" y="631.9" font-size="8" fill="#555">70.28 µs</text>
<line x1="170.0" y1="644.0" x2="450.0" y2="644.0" stroke="#BBB" stroke-width="1"/>
<rect x="484.0" y="470.0" width="472.0" height="206.0" rx="6" fill="white" stroke="#DDD" stroke-width="1"/>
<text x="720.0" y="488.0" text-anchor="middle" font-size="10.5" font-weight="bold" fill="#333">layer_normalize (2-D)</text>
<line x1="650.3" y1="504.0" x2="650.3" y2="644.0" stroke="#EEE" stroke-width="1"/>
<text x="650.3" y="656.0" text-anchor="middle" font-size="8" fill="#888">2.00 µs</text>
<line x1="695.1" y1="504.0" x2="695.1" y2="644.0" stroke="#EEE" stroke-width="1"/>
<text x="695.1" y="656.0" text-anchor="middle" font-size="8" fill="#888">5.00 µs</text>
<line x1="729.0" y1="504.0" x2="729.0" y2="644.0" stroke="#EEE" stroke-width="1"/>
<text x="729.0" y="656.0" text-anchor="middle" font-size="8" fill="#888">10.00 µs</text>
<line x1="762.9" y1="504.0" x2="762.9" y2="644.0" stroke="#EEE" stroke-width="1"/>
<text x="762.9" y="656.0" text-anchor="middle" font-size="8" fill="#888">20.00 µs</text>
<line x1="807.7" y1="504.0" x2="807.7" y2="644.0" stroke="#EEE" stroke-width="1"/>
<text x="807.7" y="656.0" text-anchor="middle" font-size="8" fill="#888">50.00 µs</text>
<line x1="841.6" y1="504.0" x2="841.6" y2="644.0" stroke="#EEE" stroke-width="1"/>
<text x="841.6" y="656.0" text-anchor="middle" font-size="8" fill="#888">100.00 µs</text>
<line x1="875.5" y1="504.0" x2="875.5" y2="644.0" stroke="#EEE" stroke-width="1"/>
<text x="875.5" y="656.0" text-anchor="middle" font-size="8" fill="#888">200.00 µs</text>
<line x1="920.3" y1="504.0" x2="920.3" y2="644.0" stroke="#EEE" stroke-width="1"/>
<text x="920.3" y="656.0" text-anchor="middle" font-size="8" fill="#888">500.00 µs</text>
<rect x="650.0" y="504.0" width="29.2" height="31.2" rx="2" fill="#B279A2" opacity="0.80"/>
<line x1="677.6" y1="519.6" x2="683.7" y2="519.6" stroke="#555" stroke-width="1.2"/>
<line x1="677.6" y1="516.6" x2="677.6" y2="522.6" stroke="#555" stroke-width="1.2"/>
<line x1="683.7" y1="516.6" x2="683.7" y2="522.6" stroke="#555" stroke-width="1.2"/>
<text x="646.0" y="523.1" text-anchor="end" font-size="8.5" fill="#333">32×16</text>
<text x="683.2" y="523.1" font-size="8" fill="#555">3.62 µs</text>
<rect x="650.0" y="540.2" width="112.9" height="31.2" rx="2" fill="#B279A2" opacity="0.80"/>
<line x1="762.1" y1="555.9" x2="765.0" y2="555.9" stroke="#555" stroke-width="1.2"/>
<line x1="762.1" y1="552.9" x2="762.1" y2="558.9" stroke="#555" stroke-width="1.2"/>
<line x1="765.0" y1="552.9" x2="765.0" y2="558.9" stroke="#555" stroke-width="1.2"/>
<text x="646.0" y="559.4" text-anchor="end" font-size="8.5" fill="#333">128×64</text>
<text x="766.9" y="559.4" font-size="8" fill="#555">20.02 µs</text>
<rect x="650.0" y="576.5" width="199.4" height="31.2" rx="2" fill="#B279A2" opacity="0.80"/>
<line x1="848.4" y1="592.1" x2="854.6" y2="592.1" stroke="#555" stroke-width="1.2"/>
<line x1="848.4" y1="589.1" x2="848.4" y2="595.1" stroke="#555" stroke-width="1.2"/>
<line x1="854.6" y1="589.1" x2="854.6" y2="595.1" stroke="#555" stroke-width="1.2"/>
<text x="646.0" y="595.6" text-anchor="end" font-size="8.5" fill="#333">512×128</text>
<text x="853.4" y="595.6" font-size="8" fill="#555">117.17 µs</text>
<rect x="650.0" y="612.8" width="261.8" height="31.2" rx="2" fill="#B279A2" opacity="0.80"/>
<line x1="910.9" y1="628.4" x2="915.6" y2="628.4" stroke="#555" stroke-width="1.2"/>
<line x1="910.9" y1="625.4" x2="910.9" y2="631.4" stroke="#555" stroke-width="1.2"/>
<line x1="915.6" y1="625.4" x2="915.6" y2="631.4" stroke="#555" stroke-width="1.2"/>
<text x="646.0" y="631.9" text-anchor="end" font-size="8.5" fill="#333">1000×256</text>
<text x="915.8" y="631.9" font-size="8" fill="#555">420.11 µs</text>
<line x1="650.0" y1="644.0" x2="930.0" y2="644.0" stroke="#BBB" stroke-width="1"/>
</svg>
