<svg xmlns="http://www.w3.org/2000/svg" width="960" height="698" font-family="monospace,Arial,sans-serif">
<rect width="960" height="698" fill="#FAFAFA"/>
<text x="480" y="30" text-anchor="middle" font-size="15" font-weight="bold" fill="#222">CPU: Apple M3 Max — fast-umap Benchmark Results</text>
<rect x="4.0" y="50.0" width="472.0" height="206.0" rx="6" fill="white" stroke="#DDD" stroke-width="1"/>
<text x="240.0" y="68.0" text-anchor="middle" font-size="10.5" font-weight="bold" fill="#333">normalize_data</text>
<line x1="158.6" y1="84.0" x2="158.6" y2="224.0" stroke="#EEE" stroke-width="1"/>
<text x="158.6" y="236.0" text-anchor="middle" font-size="8" fill="#888">200.00 µs</text>
<line x1="214.0" y1="84.0" x2="214.0" y2="224.0" stroke="#EEE" stroke-width="1"/>
<text x="214.0" y="236.0" text-anchor="middle" font-size="8" fill="#888">500.00 µs</text>
<line x1="255.8" y1="84.0" x2="255.8" y2="224.0" stroke="#EEE" stroke-width="1"/>
<text x="255.8" y="236.0" text-anchor="middle" font-size="8" fill="#888">1.00 ms</text>
<line x1="297.7" y1="84.0" x2="297.7" y2="224.0" stroke="#EEE" stroke-width="1"/>
<text x="297.7" y="236.0" text-anchor="middle" font-size="8" fill="#888">2.00 ms</text>
<line x1="353.1" y1="84.0" x2="353.1" y2="224.0" stroke="#EEE" stroke-width="1"/>
<text x="353.1" y="236.0" text-anchor="middle" font-size="8" fill="#888">5.00 ms</text>
<line x1="394.9" y1="84.0" x2="394.9" y2="224.0" stroke="#EEE" stroke-width="1"/>
<text x="394.9" y="236.0" text-anchor="middle" font-size="8" fill="#888">10.00 ms</text>
<line x1="436.8" y1="84.0" x2="436.8" y2="224.0" stroke="#EEE" stroke-width="1"/>
<text x="436.8" y="236.0" text-anchor="middle" font-size="8" fill="#888">20.00 ms</text>
<rect x="170.0" y="84.0" width="36.1" height="31.2" rx="2" fill="#4C78A8" opacity="0.80"/>
<line x1="181.9" y1="99.6" x2="232.1" y2="99.6" stroke="#555" stroke-width="1.2"/>
<line x1="181.9" y1="96.6" x2="181.9" y2="102.6" stroke="#555" stroke-width="1.2"/>
<line x1="232.1" y1="96.6" x2="232.1" y2="102.6" stroke="#555" stroke-width="1.2"/>
<text x="166.0" y="103.1" text-anchor="end" font-size="8.5" fill="#333">100×10</text>
<text x="210.1" y="103.1" font-size="8" fill="#555">439.03 µs</text>
<rect x="170.0" y="120.2" width="139.1" height="31.2" rx="2" fill="#4C78A8" opacity="0.80"/>
<line x1="294.5" y1="135.9" x2="321.6" y2="135.9" stroke="#555" stroke-width="1.2"/>
<line x1="294.5" y1="132.9" x2="294.5" y2="138.9" stroke="#555" stroke-width="1.2"/>
<line x1="321.6" y1="132.9" x2="321.6" y2="138.9" stroke="#555" stroke-width="1.2"/>
<text x="166.0" y="139.4" text-anchor="end" font-size="8.5" fill="#333">500×30</text>
<text x="313.1" y="139.4" font-size="8" fill="#555">2.41 ms</text>
<rect x="170.0" y="156.5" width="180.6" height="31.2" rx="2" fill="#4C78A8" opacity="0.80"/>
<line x1="343.4" y1="172.1" x2="359.4" y2="172.1" stroke="#555" stroke-width="1.2"/>
<line x1="343.4" y1="169.1" x2="343.4" y2="175.1" stroke="#555" stroke-width="1.2"/>
<line x1="359.4" y1="169.1" x2="359.4" y2="175.1" stroke="#555" stroke-width="1.2"/>
<text x="166.0" y="175.6" text-anchor="end" font-size="8.5" fill="#333">1000×50</text>
<text x="354.6" y="175.6" font-size="8" fill="#555">4.80 ms</text>
<rect x="170.0" y="192.8" width="257.6" height="31.2" rx="2" fill="#4C78A8" opacity="0.80"/>
<line x1="424.4" y1="208.4" x2="432.4" y2="208.4" stroke="#555" stroke-width="1.2"/>
<line x1="424.4" y1="205.4" x2="424.4" y2="211.4" stroke="#555" stroke-width="1.2"/>
<line x1="432.4" y1="205.4" x2="432.4" y2="211.4" stroke="#555" stroke-width="1.2"/>
<text x="166.0" y="211.9" text-anchor="end" font-size="8.5" fill="#333">5000×100</text>
<text x="431.6" y="211.9" font-size="8" fill="#555">17.16 ms</text>
<line x1="170.0" y1="224.0" x2="450.0" y2="224.0" stroke="#BBB" stroke-width="1"/>
<rect x="484.0" y="50.0" width="472.0" height="206.0" rx="6" fill="white" stroke="#DDD" stroke-width="1"/>
<text x="720.0" y="68.0" text-anchor="middle" font-size="10.5" font-weight="bold" fill="#333">generate_test_data</text>
<line x1="645.1" y1="84.0" x2="645.1" y2="224.0" stroke="#EEE" stroke-width="1"/>
<text x="645.1" y="236.0" text-anchor="middle" font-size="8" fill="#888">2.00 µs</text>
<line x1="681.0" y1="84.0" x2="681.0" y2="224.0" stroke="#EEE" stroke-width="1"/>
<text x="681.0" y="236.0" text-anchor="middle" font-size="8" fill="#888">5.00 µs</text>
<line x1="708.2" y1="84.0" x2="708.2" y2="224.0" stroke="#EEE" stroke-width="1"/>
<text x="708.2" y="236.0" text-anchor="middle" font-size="8" fill="#888">10.00 µs</text>
<line x1="735.3" y1="84.0" x2="735.3" y2="224.0" stroke="#EEE" stroke-width="1"/>
<text x="735.3" y="236.0" text-anchor="middle" font-size="8" fill="#888">20.00 µs</text>
<line x1="771.2" y1="84.0" x2="771.2" y2="224.0" stroke="#EEE" stroke-width="1"/>
<text x="771.2" y="236.0" text-anchor="middle" font-size="8" fill="#888">50.00 µs</text>
<line x1="798.3" y1="84.0" x2="798.3" y2="224.0" stroke="#EEE" stroke-width="1"/>
<text x="798.3" y="236.0" text-anchor="middle" font-size="8" fill="#888">100.00 µs</text>
<line x1="825.5" y1="84.0" x2="825.5" y2="224.0" stroke="#EEE" stroke-width="1"/>
<text x="825.5" y="236.0" text-anchor="middle" font-size="8" fill="#888">200.00 µs</text>
<line x1="861.3" y1="84.0" x2="861.3" y2="224.0" stroke="#EEE" stroke-width="1"/>
<text x="861.3" y="236.0" text-anchor="middle" font-size="8" fill="#888">500.00 µs</text>
<line x1="888.5" y1="84.0" x2="888.5" y2="224.0" stroke="#EEE" stroke-width="1"/>
<text x="888.5" y="236.0" text-anchor="middle" font-size="8" fill="#888">1.00 ms</text>
<line x1="915.6" y1="84.0" x2="915.6" y2="224.0" stroke="#EEE" stroke-width="1"/>
<text x="915.6" y="236.0" text-anchor="middle" font-size="8" fill="#888">2.00 ms</text>
<rect x="650.0" y="84.0" width="23.4" height="31.2" rx="2" fill="#F58518" opacity="0.80"/>
<line x1="668.4" y1="99.6" x2="721.3" y2="99.6" stroke="#555" stroke-width="1.2"/>
<line x1="668.4" y1="96.6" x2="668.4" y2="102.6" stroke="#555" stroke-width="1.2"/>
<line x1="721.3" y1="96.6" x2="721.3" y2="102.6" stroke="#555" stroke-width="1.2"/>
<text x="646.0" y="103.1" text-anchor="end" font-size="8.5" fill="#333">100×10</text>
<text x="677.4" y="103.1" font-size="8" fill="#555">4.12 µs</text>
<rect x="650.0" y="120.2" width="129.4" height="31.2" rx="2" fill="#F58518" opacity="0.80"/>
<line x1="776.7" y1="135.9" x2="793.6" y2="135.9" stroke="#555" stroke-width="1.2"/>
<line x1="776.7" y1="132.9" x2="776.7" y2="138.9" stroke="#555" stroke-width="1.2"/>
<line x1="793.6" y1="132.9" x2="793.6" y2="138.9" stroke="#555" stroke-width="1.2"/>
<text x="646.0" y="139.4" text-anchor="end" font-size="8.5" fill="#333">500×30</text>
<text x="783.4" y="139.4" font-size="8" fill="#555">61.70 µs</text>
<rect x="650.0" y="156.5" width="175.3" height="31.2" rx="2" fill="#F58518" opacity="0.80"/>
<line x1="823.6" y1="172.1" x2="833.8" y2="172.1" stroke="#555" stroke-width="1.2"/>
<line x1="823.6" y1="169.1" x2="823.6" y2="175.1" stroke="#555" stroke-width="1.2"/>
<line x1="833.8" y1="169.1" x2="833.8" y2="175.1" stroke="#555" stroke-width="1.2"/>
<text x="646.0" y="175.6" text-anchor="end" font-size="8.5" fill="#333">1000×50</text>
<text x="829.3" y="175.6" font-size="8" fill="#555">199.31 µs</text>
<rect x="650.0" y="192.8" width="265.5" height="31.2" rx="2" fill="#F58518" opacity="0.80"/>
<line x1="913.8" y1="208.4" x2="918.7" y2="208.4" stroke="#555" stroke-width="1.2"/>
<line x1="913.8" y1="205.4" x2="913.8" y2="211.4" stroke="#555" stroke-width="1.2"/>
<line x1="918.7" y1="205.4" x2="918.7" y2="211.4" stroke="#555" stroke-width="1.2"/>
<text x="646.0" y="211.9" text-anchor="end" font-size="8.5" fill="#333">5000×100</text>
<text x="919.5" y="211.9" font-size="8" fill="#555">1.99 ms</text>
<line x1="650.0" y1="224.0" x2="930.0" y2="224.0" stroke="#BBB" stroke-width="1"/>
<rect x="4.0" y="260.0" width="472.0" height="206.0" rx="6" fill="white" stroke="#DDD" stroke-width="1"/>
<text x="240.0" y="278.0" text-anchor="middle" font-size="10.5" font-weight="bold" fill="#333">tensor_convert (Vec↔Tensor)</text>
<line x1="212.6" y1="294.0" x2="212.6" y2="434.0" stroke="#EEE" stroke-width="1"/>
<text x="212.6" y="446.0" text-anchor="middle" font-size="8" fill="#888">5.00 µs</text>
<line x1="265.6" y1="294.0" x2="265.6" y2="434.0" stroke="#EEE" stroke-width="1"/>
<text x="265.6" y="446.0" text-anchor="middle" font-size="8" fill="#888">10.00 µs</text>
<line x1="318.7" y1="294.0" x2="318.7" y2="434.0" stroke="#EEE" stroke-width="1"/>
<text x="318.7" y="446.0" text-anchor="middle" font-size="8" fill="#888">20.00 µs</text>
<line x1="388.8" y1="294.0" x2="388.8" y2="434.0" stroke="#EEE" stroke-width="1"/>
<text x="388.8" y="446.0" text-anchor="middle" font-size="8" fill="#888">50.00 µs</text>
<line x1="441.9" y1="294.0" x2="441.9" y2="434.0" stroke="#EEE" stroke-width="1"/>
<text x="441.9" y="446.0" text-anchor="middle" font-size="8" fill="#888">100.00 µs</text>
<rect x="170.0" y="294.0" width="45.8" height="43.3" rx="2" fill="#E45756" opacity="0.80"/>
<line x1="213.9" y1="315.7" x2="249.0" y2="315.7" stroke="#555" stroke-width="1.2"/>
<line x1="213.9" y1="312.7" x2="213.9" y2="318.7" stroke="#555" stroke-width="1.2"/>
<line x1="249.0" y1="312.7" x2="249.0" y2="318.7" stroke="#555" stroke-width="1.2"/>
<text x="166.0" y="319.2" text-anchor="end" font-size="8.5" fill="#333">100×10</text>
<text x="219.8" y="319.2" font-size="8" fill="#555">5.21 µs</text>
<rect x="170.0" y="342.3" width="187.4" height="43.3" rx="2" fill="#E45756" opacity="0.80"/>
<line x1="351.5" y1="364.0" x2="375.7" y2="364.0" stroke="#555" stroke-width="1.2"/>
<line x1="351.5" y1="361.0" x2="351.5" y2="367.0" stroke="#555" stroke-width="1.2"/>
<line x1="375.7" y1="361.0" x2="375.7" y2="367.0" stroke="#555" stroke-width="1.2"/>
<text x="166.0" y="367.5" text-anchor="end" font-size="8.5" fill="#333">500×30</text>
<text x="361.4" y="367.5" font-size="8" fill="#555">33.16 µs</text>
<rect x="170.0" y="390.7" width="251.6" height="43.3" rx="2" fill="#E45756" opacity="0.80"/>
<line x1="416.2" y1="412.3" x2="435.8" y2="412.3" stroke="#555" stroke-width="1.2"/>
<line x1="416.2" y1="409.3" x2="416.2" y2="415.3" stroke="#555" stroke-width="1.2"/>
<line x1="435.8" y1="409.3" x2="435.8" y2="415.3" stroke="#555" stroke-width="1.2"/>
<text x="166.0" y="415.8" text-anchor="end" font-size="8.5" fill="#333">1000×50</text>
<text x="425.6" y="415.8" font-size="8" fill="#555">76.67 µs</text>
<line x1="170.0" y1="434.0" x2="450.0" y2="434.0" stroke="#BBB" stroke-width="1"/>
<rect x="484.0" y="260.0" width="472.0" height="206.0" rx="6" fill="white" stroke="#DDD" stroke-width="1"/>
<text x="720.0" y="278.0" text-anchor="middle" font-size="10.5" font-weight="bold" fill="#333">model_forward (CPU / NdArray)</text>
<line x1="654.4" y1="294.0" x2="654.4" y2="434.0" stroke="#EEE" stroke-width="1"/>
<text x="654.4" y="446.0" text-anchor="middle" font-size="8" fill="#888">20.00 µs</text>
<line x1="739.2" y1="294.0" x2="739.2" y2="434.0" stroke="#EEE" stroke-width="1"/>
<text x="739.2" y="446.0" text-anchor="middle" font-size="8" fill="#888">50.00 µs</text>
<line x1="803.3" y1="294.0" x2="803.3" y2="434.0" stroke="#EEE" stroke-width="1"/>
<text x="803.3" y="446.0" text-anchor="middle" font-size="8" fill="#888">100.00 µs</text>
<line x1="867.4" y1="294.0" x2="867.4" y2="434.0" stroke="#EEE" stroke-width="1"/>
<text x="867.4" y="446.0" text-anchor="middle" font-size="8" fill="#888">200.00 µs</text>
<rect x="650.0" y="294.0" width="55.6" height="24.0" rx="2" fill="#72B7B2" opacity="0.80"/>
<line x1="656.5" y1="306.0" x2="743.0" y2="306.0" stroke="#555" stroke-width="1.2"/>
<line x1="656.5" y1="303.0" x2="656.5" y2="309.0" stroke="#555" stroke-width="1.2"/>
<line x1="743.0" y1="303.0" x2="743.0" y2="309.0" stroke="#555" stroke-width="1.2"/>
<text x="646.0" y="309.5" text-anchor="end" font-size="8.5" fill="#333">16s×10f [32]→2</text>
<text x="709.6" y="309.5" font-size="8" fill="#555">34.79 µs</text>
<rect x="650.0" y="323.0" width="55.3" height="24.0" rx="2" fill="#72B7B2" opacity="0.80"/>
<line x1="682.6" y1="335.0" x2="738.7" y2="335.0" stroke="#555" stroke-width="1.2"/>
<line x1="682.6" y1="332.0" x2="682.6" y2="338.0" stroke="#555" stroke-width="1.2"/>
<line x1="738.7" y1="332.0" x2="738.7" y2="338.0" stroke="#555" stroke-width="1.2"/>
<text x="646.0" y="338.5" text-anchor="end" font-size="8.5" fill="#333">64s×50f [64]→2</text>
<text x="709.3" y="338.5" font-size="8" fill="#555">34.66 µs</text>
<rect x="650.0" y="352.0" width="103.3" height="24.0" rx="2" fill="#72B7B2" opacity="0.80"/>
<line x1="746.8" y1="364.0" x2="771.8" y2="364.0" stroke="#555" stroke-width="1.2"/>
<line x1="746.8" y1="361.0" x2="746.8" y2="367.0" stroke="#555" stroke-width="1.2"/>
<line x1="771.8" y1="361.0" x2="771.8" y2="367.0" stroke="#555" stroke-width="1.2"/>
<text x="646.0" y="367.5" text-anchor="end" font-size="8.5" fill="#333">128s×50f [128]→2</text>
<text x="757.3" y="367.5" font-size="8" fill="#555">58.22 µs</text>
<rect x="650.0" y="381.0" width="131.0" height="24.0" rx="2" fill="#72B7B2" opacity="0.80"/>
<line x1="773.7" y1="393.0" x2="831.0" y2="393.0" stroke="#555" stroke-width="1.2"/>
<line x1="773.7" y1="390.0" x2="773.7" y2="396.0" stroke="#555" stroke-width="1.2"/>
<line x1="831.0" y1="390.0" x2="831.0" y2="396.0" stroke="#555" stroke-width="1.2"/>
<text x="646.0" y="396.5" text-anchor="end" font-size="8.5" fill="#333">64s×100f [128,64]→3</text>
<text x="785.0" y="396.5" font-size="8" fill="#555">78.59 µs</text>
<rect x="650.0" y="410.0" width="245.6" height="24.0" rx="2" fill="#72B7B2" opacity="0.80"/>
<line x1="886.4" y1="422.0" x2="923.8" y2="422.0" stroke="#555" stroke-width="1.2"/>
<line x1="886.4" y1="419.0" x2="886.4" y2="425.0" stroke="#555" stroke-width="1.2"/>
<line x1="923.8" y1="419.0" x2="923.8" y2="425.0" stroke="#555" stroke-width="1.2"/>
<text x="646.0" y="425.5" text-anchor="end" font-size="8.5" fill="#333">256s×100f [256,128]→2</text>
<text x="899.6" y="425.5" font-size="8" fill="#555">271.33 µs</text>
<line x1="650.0" y1="434.0" x2="930.0" y2="434.0" stroke="#BBB" stroke-width="1"/>
<rect x="4.0" y="470.0" width="472.0" height="206.0" rx="6" fill="white" stroke="#DDD" stroke-width="1"/>
<text x="240.0" y="488.0" text-anchor="middle" font-size="10.5" font-weight="bold" fill="#333">normalize_tensor (1-D min-max)</text>
<line x1="166.2" y1="504.0" x2="166.2" y2="644.0" stroke="#EEE" stroke-width="1"/>
<text x="166.2" y="656.0" text-anchor="middle" font-size="8" fill="#888">1.00 µs</text>
<line x1="208.4" y1="504.0" x2="208.4" y2="644.0" stroke="#EEE" stroke-width="1"/>
<text x="208.4" y="656.0" text-anchor="middle" font-size="8" fill="#888">2.00 µs</text>
<line x1="264.1" y1="504.0" x2="264.1" y2="644.0" stroke="#EEE" stroke-width="1"/>
<text x="264.1" y="656.0" text-anchor="middle" font-size="8" fill="#888">5.00 µs</text>
<line x1="306.2" y1="504.0" x2="306.2" y2="644.0" stroke="#EEE" stroke-width="1"/>
<text x="306.2" y="656.0" text-anchor="middle" font-size="8" fill="#888">10.00 µs</text>
<line x1="348.4" y1="504.0" x2="348.4" y2="644.0" stroke="#EEE" stroke-width="1"/>
<text x="348.4" y="656.0" text-anchor="middle" font-size="8" fill="#888">20.00 µs</text>
<line x1="404.1" y1="504.0" x2="404.1" y2="644.0" stroke="#EEE" stroke-width="1"/>
<text x="404.1" y="656.0" text-anchor="middle" font-size="8" fill="#888">50.00 µs</text>
<line x1="446.2" y1="504.0" x2="446.2" y2="644.0" stroke="#EEE" stroke-width="1"/>
<text x="446.2" y="656.0" text-anchor="middle" font-size="8" fill="#888">100.00 µs</text>
<rect x="170.0" y="504.0" width="36.3" height="31.2" rx="2" fill="#54A24B" opacity="0.80"/>
<line x1="204.5" y1="519.6" x2="208.4" y2="519.6" stroke="#555" stroke-width="1.2"/>
<line x1="204.5" y1="516.6" x2="204.5" y2="522.6" stroke="#555" stroke-width="1.2"/>
<line x1="208.4" y1="516.6" x2="208.4" y2="522.6" stroke="#555" stroke-width="1.2"/>
<text x="166.0" y="523.1" text-anchor="end" font-size="8.5" fill="#333">n=64</text>
<text x="210.3" y="523.1" font-size="8" fill="#555">1.93 µs</text>
<rect x="170.0" y="540.2" width="63.6" height="31.2" rx="2" fill="#54A24B" opacity="0.80"/>
<line x1="227.7" y1="555.9" x2="248.6" y2="555.9" stroke="#555" stroke-width="1.2"/>
<line x1="227.7" y1="552.9" x2="227.7" y2="558.9" stroke="#555" stroke-width="1.2"/>
<line x1="248.6" y1="552.9" x2="248.6" y2="558.9" stroke="#555" stroke-width="1.2"/>
<text x="166.0" y="559.4" text-anchor="end" font-size="8.5" fill="#333">n=512</text>
<text x="237.6" y="559.4" font-size="8" fill="#555">3.03 µs</text>
<rect x="170.0" y="576.5" width="134.7" height="31.2" rx="2" fill="#54A24B" opacity="0.80"/>
<line x1="302.9" y1="592.1" x2="319.2" y2="592.1" stroke="#555" stroke-width="1.2"/>
<line x1="302.9" y1="589.1" x2="302.9" y2="595.1" stroke="#555" stroke-width="1.2"/>
<line x1="319.2" y1="589.1" x2="319.2" y2="595.1" stroke="#555" stroke-width="1.2"/>
<text x="166.0" y="595.6" text-anchor="end" font-size="8.5" fill="#333">n=4096</text>
<text x="308.7" y="595.6" font-size="8" fill="#555">9.75 µs</text>
<rect x="170.0" y="612.8" width="257.4" height="31.2" rx="2" fill="#54A24B" opacity="0.80"/>
<line x1="424.5" y1="628.4" x2="440.8" y2="628.4" stroke="#555" stroke-width="1.2"/>
<line x1="424.5" y1="625.4" x2="424.5" y2="631.4" stroke="#555" stroke-width="1.2"/>
<line x1="440.8" y1="625.4" x2="440.8" y2="631.4" stroke="#555" stroke-width="1.2"/>
<text x="166.0" y="631.9" text-anchor="end" font-size="8.5" fill="#333">n=32768</text>
<text x="431.4" y="631.9" font-size="8" fill="#555">73.37 µs</text>
<line x1="170.0" y1="644.0" x2="450.0" y2="644.0" stroke="#BBB" stroke-width="1"/>
<rect x="484.0" y="470.0" width="472.0" height="206.0" rx="6" fill="white" stroke="#DDD" stroke-width="1"/>
<text x="720.0" y="488.0" text-anchor="middle" font-size="10.5" font-weight="bold" fill="#333">layer_normalize (2-D)</text>
<line x1="650.4" y1="504.0" x2="650.4" y2="644.0" stroke="#EEE" stroke-width="1"/>
<text x="650.4" y="656.0" text-anchor="middle" font-size="8" fill="#888">2.00 µs</text>
<line x1="695.2" y1="504.0" x2="695.2" y2="644.0" stroke="#EEE" stroke-width="1"/>
<text x="695.2" y="656.0" text-anchor="middle" font-size="8" fill="#888">5.00 µs</text>
<line x1="729.1" y1="504.0" x2="729.1" y2="644.0" stroke="#EEE" stroke-width="1"/>
<text x="729.1" y="656.0" text-anchor="middle" font-size="8" fill="#888">10.00 µs</text>
<line x1="763.0" y1="504.0" x2="763.0" y2="644.0" stroke="#EEE" stroke-width="1"/>
<text x="763.0" y="656.0" text-anchor="middle" font-size="8" fill="#888">20.00 µs</text>
<line x1="807.7" y1="504.0" x2="807.7" y2="644.0" stroke="#EEE" stroke-width="1"/>
<text x="807.7" y="656.0" text-anchor="middle" font-size="8" fill="#888">50.00 µs</text>
<line x1="841.6" y1="504.0" x2="841.6" y2="644.0" stroke="#EEE" stroke-width="1"/>
<text x="841.6" y="656.0" text-anchor="middle" font-size="8" fill="#888">100.00 µs</text>
<line x1="875.5" y1="504.0" x2="875.5" y2="644.0" stroke="#EEE" stroke-width="1"/>
<text x="875.5" y="656.0" text-anchor="middle" font-size="8" fill="#888">200.00 µs</text>
<line x1="920.3" y1="504.0" x2="920.3" y2="644.0" stroke="#EEE" stroke-width="1"/>
<text x="920.3" y="656.0" text-anchor="middle" font-size="8" fill="#888">500.00 µs</text>
<rect x="650.0" y="504.0" width="29.2" height="31.2" rx="2" fill="#B279A2" opacity="0.80"/>
<line x1="677.8" y1="519.6" x2="682.8" y2="519.6" stroke="#555" stroke-width="1.2"/>
<line x1="677.8" y1="516.6" x2="677.8" y2="522.6" stroke="#555" stroke-width="1.2"/>
<line x1="682.8" y1="516.6" x2="682.8" y2="522.6" stroke="#555" stroke-width="1.2"/>
<text x="646.0" y="523.1" text-anchor="end" font-size="8.5" fill="#333">32×16</text>
<text x="683.2" y="523.1" font-size="8" fill="#555">3.60 µs</text>
<rect x="650.0" y="540.2" width="103.7" height="31.2" rx="2" fill="#B279A2" opacity="0.80"/>
<line x1="752.8" y1="555.9" x2="756.2" y2="555.9" stroke="#555" stroke-width="1.2"/>
<line x1="752.8" y1="552.9" x2="752.8" y2="558.9" stroke="#555" stroke-width="1.2"/>
<line x1="756.2" y1="552.9" x2="756.2" y2="558.9" stroke="#555" stroke-width="1.2"/>
<text x="646.0" y="559.4" text-anchor="end" font-size="8.5" fill="#333">128×64</text>
<text x="757.7" y="559.4" font-size="8" fill="#555">16.56 µs</text>
<rect x="650.0" y="576.5" width="200.1" height="31.2" rx="2" fill="#B279A2" opacity="0.80"/>
<line x1="848.7" y1="592.1" x2="854.2" y2="592.1" stroke="#555" stroke-width="1.2"/>
<line x1="848.7" y1="589.1" x2="848.7" y2="595.1" stroke="#555" stroke-width="1.2"/>
<line x1="854.2" y1="589.1" x2="854.2" y2="595.1" stroke="#555" stroke-width="1.2"/>
<text x="646.0" y="595.6" text-anchor="end" font-size="8.5" fill="#333">512×128</text>
<text x="854.1" y="595.6" font-size="8" fill="#555">119.01 µs</text>
<rect x="650.0" y="612.8" width="261.8" height="31.2" rx="2" fill="#B279A2" opacity="0.80"/>
<line x1="910.8" y1="628.4" x2="914.7" y2="628.4" stroke="#555" stroke-width="1.2"/>
<line x1="910.8" y1="625.4" x2="910.8" y2="631.4" stroke="#555" stroke-width="1.2"/>
<line x1="914.7" y1="625.4" x2="914.7" y2="631.4" stroke="#555" stroke-width="1.2"/>
<text x="646.0" y="631.9" text-anchor="end" font-size="8.5" fill="#333">1000×256</text>
<text x="915.8" y="631.9" font-size="8" fill="#555">420.88 µs</text>
<line x1="650.0" y1="644.0" x2="930.0" y2="644.0" stroke="#BBB" stroke-width="1"/>
</svg>
