<svg xmlns="http://www.w3.org/2000/svg" width="960" height="698" font-family="monospace,Arial,sans-serif">
<rect width="960" height="698" fill="#FAFAFA"/>
<text x="480" y="30" text-anchor="middle" font-size="15" font-weight="bold" fill="#222">CPU: Apple M3 Max — fast-umap Benchmark Results</text>
<rect x="4.0" y="50.0" width="472.0" height="206.0" rx="6" fill="white" stroke="#DDD" stroke-width="1"/>
<text x="240.0" y="68.0" text-anchor="middle" font-size="10.5" font-weight="bold" fill="#333">normalize_data</text>
<line x1="157.2" y1="84.0" x2="157.2" y2="224.0" stroke="#EEE" stroke-width="1"/>
<text x="157.2" y="236.0" text-anchor="middle" font-size="8" fill="#888">200.00 µs</text>
<line x1="212.3" y1="84.0" x2="212.3" y2="224.0" stroke="#EEE" stroke-width="1"/>
<text x="212.3" y="236.0" text-anchor="middle" font-size="8" fill="#888">500.00 µs</text>
<line x1="254.1" y1="84.0" x2="254.1" y2="224.0" stroke="#EEE" stroke-width="1"/>
<text x="254.1" y="236.0" text-anchor="middle" font-size="8" fill="#888">1.00 ms</text>
<line x1="295.8" y1="84.0" x2="295.8" y2="224.0" stroke="#EEE" stroke-width="1"/>
<text x="295.8" y="236.0" text-anchor="middle" font-size="8" fill="#888">2.00 ms</text>
<line x1="351.0" y1="84.0" x2="351.0" y2="224.0" stroke="#EEE" stroke-width="1"/>
<text x="351.0" y="236.0" text-anchor="middle" font-size="8" fill="#888">5.00 ms</text>
<line x1="392.7" y1="84.0" x2="392.7" y2="224.0" stroke="#EEE" stroke-width="1"/>
<text x="392.7" y="236.0" text-anchor="middle" font-size="8" fill="#888">10.00 ms</text>
<line x1="434.5" y1="84.0" x2="434.5" y2="224.0" stroke="#EEE" stroke-width="1"/>
<text x="434.5" y="236.0" text-anchor="middle" font-size="8" fill="#888">20.00 ms</text>
<rect x="170.0" y="84.0" width="36.0" height="31.2" rx="2" fill="#4C78A8" opacity="0.80"/>
<line x1="187.2" y1="99.6" x2="240.4" y2="99.6" stroke="#555" stroke-width="1.2"/>
<line x1="187.2" y1="96.6" x2="187.2" y2="102.6" stroke="#555" stroke-width="1.2"/>
<line x1="240.4" y1="96.6" x2="240.4" y2="102.6" stroke="#555" stroke-width="1.2"/>
<text x="166.0" y="103.1" text-anchor="end" font-size="8.5" fill="#333">100×10</text>
<text x="210.0" y="103.1" font-size="8" fill="#555">450.11 µs</text>
<rect x="170.0" y="120.2" width="132.2" height="31.2" rx="2" fill="#4C78A8" opacity="0.80"/>
<line x1="292.0" y1="135.9" x2="319.8" y2="135.9" stroke="#555" stroke-width="1.2"/>
<line x1="292.0" y1="132.9" x2="292.0" y2="138.9" stroke="#555" stroke-width="1.2"/>
<line x1="319.8" y1="132.9" x2="319.8" y2="138.9" stroke="#555" stroke-width="1.2"/>
<text x="166.0" y="139.4" text-anchor="end" font-size="8.5" fill="#333">500×30</text>
<text x="306.2" y="139.4" font-size="8" fill="#555">2.22 ms</text>
<rect x="170.0" y="156.5" width="176.5" height="31.2" rx="2" fill="#4C78A8" opacity="0.80"/>
<line x1="332.5" y1="172.1" x2="359.0" y2="172.1" stroke="#555" stroke-width="1.2"/>
<line x1="332.5" y1="169.1" x2="332.5" y2="175.1" stroke="#555" stroke-width="1.2"/>
<line x1="359.0" y1="169.1" x2="359.0" y2="175.1" stroke="#555" stroke-width="1.2"/>
<text x="166.0" y="175.6" text-anchor="end" font-size="8.5" fill="#333">1000×50</text>
<text x="350.5" y="175.6" font-size="8" fill="#555">4.64 ms</text>
<rect x="170.0" y="192.8" width="257.6" height="31.2" rx="2" fill="#4C78A8" opacity="0.80"/>
<line x1="420.2" y1="208.4" x2="432.7" y2="208.4" stroke="#555" stroke-width="1.2"/>
<line x1="420.2" y1="205.4" x2="420.2" y2="211.4" stroke="#555" stroke-width="1.2"/>
<line x1="432.7" y1="205.4" x2="432.7" y2="211.4" stroke="#555" stroke-width="1.2"/>
<text x="166.0" y="211.9" text-anchor="end" font-size="8.5" fill="#333">5000×100</text>
<text x="431.6" y="211.9" font-size="8" fill="#555">17.85 ms</text>
<line x1="170.0" y1="224.0" x2="450.0" y2="224.0" stroke="#BBB" stroke-width="1"/>
<rect x="484.0" y="50.0" width="472.0" height="206.0" rx="6" fill="white" stroke="#DDD" stroke-width="1"/>
<text x="720.0" y="68.0" text-anchor="middle" font-size="10.5" font-weight="bold" fill="#333">generate_test_data</text>
<line x1="645.8" y1="84.0" x2="645.8" y2="224.0" stroke="#EEE" stroke-width="1"/>
<text x="645.8" y="236.0" text-anchor="middle" font-size="8" fill="#888">2.00 µs</text>
<line x1="681.8" y1="84.0" x2="681.8" y2="224.0" stroke="#EEE" stroke-width="1"/>
<text x="681.8" y="236.0" text-anchor="middle" font-size="8" fill="#888">5.00 µs</text>
<line x1="709.1" y1="84.0" x2="709.1" y2="224.0" stroke="#EEE" stroke-width="1"/>
<text x="709.1" y="236.0" text-anchor="middle" font-size="8" fill="#888">10.00 µs</text>
<line x1="736.3" y1="84.0" x2="736.3" y2="224.0" stroke="#EEE" stroke-width="1"/>
<text x="736.3" y="236.0" text-anchor="middle" font-size="8" fill="#888">20.00 µs</text>
<line x1="772.3" y1="84.0" x2="772.3" y2="224.0" stroke="#EEE" stroke-width="1"/>
<text x="772.3" y="236.0" text-anchor="middle" font-size="8" fill="#888">50.00 µs</text>
<line x1="799.5" y1="84.0" x2="799.5" y2="224.0" stroke="#EEE" stroke-width="1"/>
<text x="799.5" y="236.0" text-anchor="middle" font-size="8" fill="#888">100.00 µs</text>
<line x1="826.8" y1="84.0" x2="826.8" y2="224.0" stroke="#EEE" stroke-width="1"/>
<text x="826.8" y="236.0" text-anchor="middle" font-size="8" fill="#888">200.00 µs</text>
<line x1="862.8" y1="84.0" x2="862.8" y2="224.0" stroke="#EEE" stroke-width="1"/>
<text x="862.8" y="236.0" text-anchor="middle" font-size="8" fill="#888">500.00 µs</text>
<line x1="890.0" y1="84.0" x2="890.0" y2="224.0" stroke="#EEE" stroke-width="1"/>
<text x="890.0" y="236.0" text-anchor="middle" font-size="8" fill="#888">1.00 ms</text>
<line x1="917.3" y1="84.0" x2="917.3" y2="224.0" stroke="#EEE" stroke-width="1"/>
<text x="917.3" y="236.0" text-anchor="middle" font-size="8" fill="#888">2.00 ms</text>
<rect x="650.0" y="84.0" width="23.5" height="31.2" rx="2" fill="#F58518" opacity="0.80"/>
<line x1="668.7" y1="99.6" x2="723.5" y2="99.6" stroke="#555" stroke-width="1.2"/>
<line x1="668.7" y1="96.6" x2="668.7" y2="102.6" stroke="#555" stroke-width="1.2"/>
<line x1="723.5" y1="96.6" x2="723.5" y2="102.6" stroke="#555" stroke-width="1.2"/>
<text x="646.0" y="103.1" text-anchor="end" font-size="8.5" fill="#333">100×10</text>
<text x="677.5" y="103.1" font-size="8" fill="#555">4.05 µs</text>
<rect x="650.0" y="120.2" width="128.0" height="31.2" rx="2" fill="#F58518" opacity="0.80"/>
<line x1="776.8" y1="135.9" x2="786.9" y2="135.9" stroke="#555" stroke-width="1.2"/>
<line x1="776.8" y1="132.9" x2="776.8" y2="138.9" stroke="#555" stroke-width="1.2"/>
<line x1="786.9" y1="132.9" x2="786.9" y2="138.9" stroke="#555" stroke-width="1.2"/>
<text x="646.0" y="139.4" text-anchor="end" font-size="8.5" fill="#333">500×30</text>
<text x="782.0" y="139.4" font-size="8" fill="#555">57.87 µs</text>
<rect x="650.0" y="156.5" width="175.1" height="31.2" rx="2" fill="#F58518" opacity="0.80"/>
<line x1="824.6" y1="172.1" x2="827.3" y2="172.1" stroke="#555" stroke-width="1.2"/>
<line x1="824.6" y1="169.1" x2="824.6" y2="175.1" stroke="#555" stroke-width="1.2"/>
<line x1="827.3" y1="169.1" x2="827.3" y2="175.1" stroke="#555" stroke-width="1.2"/>
<text x="646.0" y="175.6" text-anchor="end" font-size="8.5" fill="#333">1000×50</text>
<text x="829.1" y="175.6" font-size="8" fill="#555">191.79 µs</text>
<rect x="650.0" y="192.8" width="265.4" height="31.2" rx="2" fill="#F58518" opacity="0.80"/>
<line x1="915.0" y1="208.4" x2="916.6" y2="208.4" stroke="#555" stroke-width="1.2"/>
<line x1="915.0" y1="205.4" x2="915.0" y2="211.4" stroke="#555" stroke-width="1.2"/>
<line x1="916.6" y1="205.4" x2="916.6" y2="211.4" stroke="#555" stroke-width="1.2"/>
<text x="646.0" y="211.9" text-anchor="end" font-size="8.5" fill="#333">5000×100</text>
<text x="919.4" y="211.9" font-size="8" fill="#555">1.91 ms</text>
<line x1="650.0" y1="224.0" x2="930.0" y2="224.0" stroke="#BBB" stroke-width="1"/>
<rect x="4.0" y="260.0" width="472.0" height="206.0" rx="6" fill="white" stroke="#DDD" stroke-width="1"/>
<text x="240.0" y="278.0" text-anchor="middle" font-size="10.5" font-weight="bold" fill="#333">tensor_convert (Vec↔Tensor)</text>
<line x1="215.1" y1="294.0" x2="215.1" y2="434.0" stroke="#EEE" stroke-width="1"/>
<text x="215.1" y="446.0" text-anchor="middle" font-size="8" fill="#888">5.00 µs</text>
<line x1="267.8" y1="294.0" x2="267.8" y2="434.0" stroke="#EEE" stroke-width="1"/>
<text x="267.8" y="446.0" text-anchor="middle" font-size="8" fill="#888">10.00 µs</text>
<line x1="320.5" y1="294.0" x2="320.5" y2="434.0" stroke="#EEE" stroke-width="1"/>
<text x="320.5" y="446.0" text-anchor="middle" font-size="8" fill="#888">20.00 µs</text>
<line x1="390.2" y1="294.0" x2="390.2" y2="434.0" stroke="#EEE" stroke-width="1"/>
<text x="390.2" y="446.0" text-anchor="middle" font-size="8" fill="#888">50.00 µs</text>
<line x1="442.9" y1="294.0" x2="442.9" y2="434.0" stroke="#EEE" stroke-width="1"/>
<text x="442.9" y="446.0" text-anchor="middle" font-size="8" fill="#888">100.00 µs</text>
<rect x="170.0" y="294.0" width="45.5" height="43.3" rx="2" fill="#E45756" opacity="0.80"/>
<line x1="214.5" y1="315.7" x2="217.6" y2="315.7" stroke="#555" stroke-width="1.2"/>
<line x1="214.5" y1="312.7" x2="214.5" y2="318.7" stroke="#555" stroke-width="1.2"/>
<line x1="217.6" y1="312.7" x2="217.6" y2="318.7" stroke="#555" stroke-width="1.2"/>
<text x="166.0" y="319.2" text-anchor="end" font-size="8.5" fill="#333">100×10</text>
<text x="219.5" y="319.2" font-size="8" fill="#555">5.02 µs</text>
<rect x="170.0" y="342.3" width="184.2" height="43.3" rx="2" fill="#E45756" opacity="0.80"/>
<line x1="350.5" y1="364.0" x2="374.3" y2="364.0" stroke="#555" stroke-width="1.2"/>
<line x1="350.5" y1="361.0" x2="350.5" y2="367.0" stroke="#555" stroke-width="1.2"/>
<line x1="374.3" y1="361.0" x2="374.3" y2="367.0" stroke="#555" stroke-width="1.2"/>
<text x="166.0" y="367.5" text-anchor="end" font-size="8.5" fill="#333">500×30</text>
<text x="358.2" y="367.5" font-size="8" fill="#555">31.16 µs</text>
<rect x="170.0" y="390.7" width="251.7" height="43.3" rx="2" fill="#E45756" opacity="0.80"/>
<line x1="416.6" y1="412.3" x2="435.2" y2="412.3" stroke="#555" stroke-width="1.2"/>
<line x1="416.6" y1="409.3" x2="416.6" y2="415.3" stroke="#555" stroke-width="1.2"/>
<line x1="435.2" y1="409.3" x2="435.2" y2="415.3" stroke="#555" stroke-width="1.2"/>
<text x="166.0" y="415.8" text-anchor="end" font-size="8.5" fill="#333">1000×50</text>
<text x="425.7" y="415.8" font-size="8" fill="#555">75.72 µs</text>
<line x1="170.0" y1="434.0" x2="450.0" y2="434.0" stroke="#BBB" stroke-width="1"/>
<rect x="484.0" y="260.0" width="472.0" height="206.0" rx="6" fill="white" stroke="#DDD" stroke-width="1"/>
<text x="720.0" y="278.0" text-anchor="middle" font-size="10.5" font-weight="bold" fill="#333">model_forward (CPU / NdArray)</text>
<line x1="655.3" y1="294.0" x2="655.3" y2="434.0" stroke="#EEE" stroke-width="1"/>
<text x="655.3" y="446.0" text-anchor="middle" font-size="8" fill="#888">20.00 µs</text>
<line x1="742.4" y1="294.0" x2="742.4" y2="434.0" stroke="#EEE" stroke-width="1"/>
<text x="742.4" y="446.0" text-anchor="middle" font-size="8" fill="#888">50.00 µs</text>
<line x1="808.3" y1="294.0" x2="808.3" y2="434.0" stroke="#EEE" stroke-width="1"/>
<text x="808.3" y="446.0" text-anchor="middle" font-size="8" fill="#888">100.00 µs</text>
<line x1="874.2" y1="294.0" x2="874.2" y2="434.0" stroke="#EEE" stroke-width="1"/>
<text x="874.2" y="446.0" text-anchor="middle" font-size="8" fill="#888">200.00 µs</text>
<rect x="650.0" y="294.0" width="61.3" height="24.0" rx="2" fill="#72B7B2" opacity="0.80"/>
<line x1="663.3" y1="306.0" x2="757.5" y2="306.0" stroke="#555" stroke-width="1.2"/>
<line x1="663.3" y1="303.0" x2="663.3" y2="309.0" stroke="#555" stroke-width="1.2"/>
<line x1="757.5" y1="303.0" x2="757.5" y2="309.0" stroke="#555" stroke-width="1.2"/>
<text x="646.0" y="309.5" text-anchor="end" font-size="8.5" fill="#333">16s×10f [32]→2</text>
<text x="715.3" y="309.5" font-size="8" fill="#555">36.03 µs</text>
<rect x="650.0" y="323.0" width="56.8" height="24.0" rx="2" fill="#72B7B2" opacity="0.80"/>
<line x1="686.9" y1="335.0" x2="748.8" y2="335.0" stroke="#555" stroke-width="1.2"/>
<line x1="686.9" y1="332.0" x2="686.9" y2="338.0" stroke="#555" stroke-width="1.2"/>
<line x1="748.8" y1="332.0" x2="748.8" y2="338.0" stroke="#555" stroke-width="1.2"/>
<text x="646.0" y="338.5" text-anchor="end" font-size="8.5" fill="#333">64s×50f [64]→2</text>
<text x="710.8" y="338.5" font-size="8" fill="#555">34.38 µs</text>
<rect x="650.0" y="352.0" width="105.7" height="24.0" rx="2" fill="#72B7B2" opacity="0.80"/>
<line x1="750.2" y1="364.0" x2="764.3" y2="364.0" stroke="#555" stroke-width="1.2"/>
<line x1="750.2" y1="361.0" x2="750.2" y2="367.0" stroke="#555" stroke-width="1.2"/>
<line x1="764.3" y1="361.0" x2="764.3" y2="367.0" stroke="#555" stroke-width="1.2"/>
<text x="646.0" y="367.5" text-anchor="end" font-size="8.5" fill="#333">128s×50f [128]→2</text>
<text x="759.7" y="367.5" font-size="8" fill="#555">57.50 µs</text>
<rect x="650.0" y="381.0" width="130.5" height="24.0" rx="2" fill="#72B7B2" opacity="0.80"/>
<line x1="775.8" y1="393.0" x2="792.8" y2="393.0" stroke="#555" stroke-width="1.2"/>
<line x1="775.8" y1="390.0" x2="775.8" y2="396.0" stroke="#555" stroke-width="1.2"/>
<line x1="792.8" y1="390.0" x2="792.8" y2="396.0" stroke="#555" stroke-width="1.2"/>
<text x="646.0" y="396.5" text-anchor="end" font-size="8.5" fill="#333">64s×100f [128,64]→3</text>
<text x="784.5" y="396.5" font-size="8" fill="#555">74.67 µs</text>
<rect x="650.0" y="410.0" width="244.7" height="24.0" rx="2" fill="#72B7B2" opacity="0.80"/>
<line x1="892.7" y1="422.0" x2="897.6" y2="422.0" stroke="#555" stroke-width="1.2"/>
<line x1="892.7" y1="419.0" x2="892.7" y2="425.0" stroke="#555" stroke-width="1.2"/>
<line x1="897.6" y1="419.0" x2="897.6" y2="425.0" stroke="#555" stroke-width="1.2"/>
<text x="646.0" y="425.5" text-anchor="end" font-size="8.5" fill="#333">256s×100f [256,128]→2</text>
<text x="898.7" y="425.5" font-size="8" fill="#555">248.14 µs</text>
<line x1="650.0" y1="434.0" x2="930.0" y2="434.0" stroke="#BBB" stroke-width="1"/>
<rect x="4.0" y="470.0" width="472.0" height="206.0" rx="6" fill="white" stroke="#DDD" stroke-width="1"/>
<text x="240.0" y="488.0" text-anchor="middle" font-size="10.5" font-weight="bold" fill="#333">normalize_tensor (1-D min-max)</text>
<line x1="163.3" y1="504.0" x2="163.3" y2="644.0" stroke="#EEE" stroke-width="1"/>
<text x="163.3" y="656.0" text-anchor="middle" font-size="8" fill="#888">1.00 µs</text>
<line x1="206.3" y1="504.0" x2="206.3" y2="644.0" stroke="#EEE" stroke-width="1"/>
<text x="206.3" y="656.0" text-anchor="middle" font-size="8" fill="#888">2.00 µs</text>
<line x1="263.1" y1="504.0" x2="263.1" y2="644.0" stroke="#EEE" stroke-width="1"/>
<text x="263.1" y="656.0" text-anchor="middle" font-size="8" fill="#888">5.00 µs</text>
<line x1="306.1" y1="504.0" x2="306.1" y2="644.0" stroke="#EEE" stroke-width="1"/>
<text x="306.1" y="656.0" text-anchor="middle" font-size="8" fill="#888">10.00 µs</text>
<line x1="349.0" y1="504.0" x2="349.0" y2="644.0" stroke="#EEE" stroke-width="1"/>
<text x="349.0" y="656.0" text-anchor="middle" font-size="8" fill="#888">20.00 µs</text>
<line x1="405.8" y1="504.0" x2="405.8" y2="644.0" stroke="#EEE" stroke-width="1"/>
<text x="405.8" y="656.0" text-anchor="middle" font-size="8" fill="#888">50.00 µs</text>
<line x1="448.8" y1="504.0" x2="448.8" y2="644.0" stroke="#EEE" stroke-width="1"/>
<text x="448.8" y="656.0" text-anchor="middle" font-size="8" fill="#888">100.00 µs</text>
<rect x="170.0" y="504.0" width="37.1" height="31.2" rx="2" fill="#54A24B" opacity="0.80"/>
<line x1="204.9" y1="519.6" x2="211.2" y2="519.6" stroke="#555" stroke-width="1.2"/>
<line x1="204.9" y1="516.6" x2="204.9" y2="522.6" stroke="#555" stroke-width="1.2"/>
<line x1="211.2" y1="516.6" x2="211.2" y2="522.6" stroke="#555" stroke-width="1.2"/>
<text x="166.0" y="523.1" text-anchor="end" font-size="8.5" fill="#333">n=64</text>
<text x="211.1" y="523.1" font-size="8" fill="#555">2.03 µs</text>
<rect x="170.0" y="540.2" width="59.7" height="31.2" rx="2" fill="#54A24B" opacity="0.80"/>
<line x1="226.9" y1="555.9" x2="234.7" y2="555.9" stroke="#555" stroke-width="1.2"/>
<line x1="226.9" y1="552.9" x2="226.9" y2="558.9" stroke="#555" stroke-width="1.2"/>
<line x1="234.7" y1="552.9" x2="234.7" y2="558.9" stroke="#555" stroke-width="1.2"/>
<text x="166.0" y="559.4" text-anchor="end" font-size="8.5" fill="#333">n=512</text>
<text x="233.7" y="559.4" font-size="8" fill="#555">2.92 µs</text>
<rect x="170.0" y="576.5" width="134.1" height="31.2" rx="2" fill="#54A24B" opacity="0.80"/>
<line x1="302.9" y1="592.1" x2="329.6" y2="592.1" stroke="#555" stroke-width="1.2"/>
<line x1="302.9" y1="589.1" x2="302.9" y2="595.1" stroke="#555" stroke-width="1.2"/>
<line x1="329.6" y1="589.1" x2="329.6" y2="595.1" stroke="#555" stroke-width="1.2"/>
<text x="166.0" y="595.6" text-anchor="end" font-size="8.5" fill="#333">n=4096</text>
<text x="308.1" y="595.6" font-size="8" fill="#555">9.70 µs</text>
<rect x="170.0" y="612.8" width="257.0" height="31.2" rx="2" fill="#54A24B" opacity="0.80"/>
<line x1="426.4" y1="628.4" x2="435.8" y2="628.4" stroke="#555" stroke-width="1.2"/>
<line x1="426.4" y1="625.4" x2="426.4" y2="631.4" stroke="#555" stroke-width="1.2"/>
<line x1="435.8" y1="625.4" x2="435.8" y2="631.4" stroke="#555" stroke-width="1.2"/>
<text x="166.0" y="631.9" text-anchor="end" font-size="8.5" fill="#333">n=32768</text>
<text x="431.0" y="631.9" font-size="8" fill="#555">70.30 µs</text>
<line x1="170.0" y1="644.0" x2="450.0" y2="644.0" stroke="#BBB" stroke-width="1"/>
<rect x="484.0" y="470.0" width="472.0" height="206.0" rx="6" fill="white" stroke="#DDD" stroke-width="1"/>
<text x="720.0" y="488.0" text-anchor="middle" font-size="10.5" font-weight="bold" fill="#333">layer_normalize (2-D)</text>
<line x1="650.4" y1="504.0" x2="650.4" y2="644.0" stroke="#EEE" stroke-width="1"/>
<text x="650.4" y="656.0" text-anchor="middle" font-size="8" fill="#888">2.00 µs</text>
<line x1="695.3" y1="504.0" x2="695.3" y2="644.0" stroke="#EEE" stroke-width="1"/>
<text x="695.3" y="656.0" text-anchor="middle" font-size="8" fill="#888">5.00 µs</text>
<line x1="729.2" y1="504.0" x2="729.2" y2="644.0" stroke="#EEE" stroke-width="1"/>
<text x="729.2" y="656.0" text-anchor="middle" font-size="8" fill="#888">10.00 µs</text>
<line x1="763.1" y1="504.0" x2="763.1" y2="644.0" stroke="#EEE" stroke-width="1"/>
<text x="763.1" y="656.0" text-anchor="middle" font-size="8" fill="#888">20.00 µs</text>
<line x1="808.0" y1="504.0" x2="808.0" y2="644.0" stroke="#EEE" stroke-width="1"/>
<text x="808.0" y="656.0" text-anchor="middle" font-size="8" fill="#888">50.00 µs</text>
<line x1="841.9" y1="504.0" x2="841.9" y2="644.0" stroke="#EEE" stroke-width="1"/>
<text x="841.9" y="656.0" text-anchor="middle" font-size="8" fill="#888">100.00 µs</text>
<line x1="875.9" y1="504.0" x2="875.9" y2="644.0" stroke="#EEE" stroke-width="1"/>
<text x="875.9" y="656.0" text-anchor="middle" font-size="8" fill="#888">200.00 µs</text>
<line x1="920.8" y1="504.0" x2="920.8" y2="644.0" stroke="#EEE" stroke-width="1"/>
<text x="920.8" y="656.0" text-anchor="middle" font-size="8" fill="#888">500.00 µs</text>
<rect x="650.0" y="504.0" width="29.3" height="31.2" rx="2" fill="#B279A2" opacity="0.80"/>
<line x1="677.8" y1="519.6" x2="681.2" y2="519.6" stroke="#555" stroke-width="1.2"/>
<line x1="677.8" y1="516.6" x2="677.8" y2="522.6" stroke="#555" stroke-width="1.2"/>
<line x1="681.2" y1="516.6" x2="681.2" y2="522.6" stroke="#555" stroke-width="1.2"/>
<text x="646.0" y="523.1" text-anchor="end" font-size="8.5" fill="#333">32×16</text>
<text x="683.3" y="523.1" font-size="8" fill="#555">3.61 µs</text>
<rect x="650.0" y="540.2" width="108.3" height="31.2" rx="2" fill="#B279A2" opacity="0.80"/>
<line x1="757.6" y1="555.9" x2="760.9" y2="555.9" stroke="#555" stroke-width="1.2"/>
<line x1="757.6" y1="552.9" x2="757.6" y2="558.9" stroke="#555" stroke-width="1.2"/>
<line x1="760.9" y1="552.9" x2="760.9" y2="558.9" stroke="#555" stroke-width="1.2"/>
<text x="646.0" y="559.4" text-anchor="end" font-size="8.5" fill="#333">128×64</text>
<text x="762.3" y="559.4" font-size="8" fill="#555">18.11 µs</text>
<rect x="650.0" y="576.5" width="199.7" height="31.2" rx="2" fill="#B279A2" opacity="0.80"/>
<line x1="848.7" y1="592.1" x2="853.3" y2="592.1" stroke="#555" stroke-width="1.2"/>
<line x1="848.7" y1="589.1" x2="848.7" y2="595.1" stroke="#555" stroke-width="1.2"/>
<line x1="853.3" y1="589.1" x2="853.3" y2="595.1" stroke="#555" stroke-width="1.2"/>
<text x="646.0" y="595.6" text-anchor="end" font-size="8.5" fill="#333">512×128</text>
<text x="853.7" y="595.6" font-size="8" fill="#555">117.04 µs</text>
<rect x="650.0" y="612.8" width="261.8" height="31.2" rx="2" fill="#B279A2" opacity="0.80"/>
<line x1="911.5" y1="628.4" x2="913.0" y2="628.4" stroke="#555" stroke-width="1.2"/>
<line x1="911.5" y1="625.4" x2="911.5" y2="631.4" stroke="#555" stroke-width="1.2"/>
<line x1="913.0" y1="625.4" x2="913.0" y2="631.4" stroke="#555" stroke-width="1.2"/>
<text x="646.0" y="631.9" text-anchor="end" font-size="8.5" fill="#333">1000×256</text>
<text x="915.8" y="631.9" font-size="8" fill="#555">416.44 µs</text>
<line x1="650.0" y1="644.0" x2="930.0" y2="644.0" stroke="#BBB" stroke-width="1"/>
</svg>
