<svg xmlns="http://www.w3.org/2000/svg" width="960" height="488" font-family="monospace,Arial,sans-serif">
<rect width="960" height="488" fill="#FAFAFA"/>
<text x="480" y="30" text-anchor="middle" font-size="15" font-weight="bold" fill="#222">GPU: Apple M3 Max — fast-umap Benchmark Results</text>
<rect x="4.0" y="50.0" width="472.0" height="206.0" rx="6" fill="white" stroke="#DDD" stroke-width="1"/>
<text x="240.0" y="68.0" text-anchor="middle" font-size="10.5" font-weight="bold" fill="#333">model_forward (GPU / WGPU)</text>
<line x1="272.5" y1="84.0" x2="272.5" y2="224.0" stroke="#EEE" stroke-width="1"/>
<text x="272.5" y="236.0" text-anchor="middle" font-size="8" fill="#888">500.00 µs</text>
<line x1="378.7" y1="84.0" x2="378.7" y2="224.0" stroke="#EEE" stroke-width="1"/>
<text x="378.7" y="236.0" text-anchor="middle" font-size="8" fill="#888">1.00 ms</text>
<rect x="170.0" y="84.0" width="121.2" height="19.2" rx="2" fill="#4C78A8" opacity="0.80"/>
<line x1="245.5" y1="93.6" x2="338.7" y2="93.6" stroke="#555" stroke-width="1.2"/>
<line x1="245.5" y1="90.6" x2="245.5" y2="96.6" stroke="#555" stroke-width="1.2"/>
<line x1="338.7" y1="90.6" x2="338.7" y2="96.6" stroke="#555" stroke-width="1.2"/>
<text x="166.0" y="97.1" text-anchor="end" font-size="8.5" fill="#333">16s×10f [32]→2</text>
<text x="295.2" y="97.1" font-size="8" fill="#555">564.85 µs</text>
<rect x="170.0" y="108.2" width="91.6" height="19.2" rx="2" fill="#4C78A8" opacity="0.80"/>
<line x1="247.3" y1="117.8" x2="296.7" y2="117.8" stroke="#555" stroke-width="1.2"/>
<line x1="247.3" y1="114.8" x2="247.3" y2="120.8" stroke="#555" stroke-width="1.2"/>
<line x1="296.7" y1="114.8" x2="296.7" y2="120.8" stroke="#555" stroke-width="1.2"/>
<text x="166.0" y="121.2" text-anchor="end" font-size="8.5" fill="#333">64s×50f [64]→2</text>
<text x="265.6" y="121.2" font-size="8" fill="#555">465.69 µs</text>
<rect x="170.0" y="132.3" width="94.4" height="19.2" rx="2" fill="#4C78A8" opacity="0.80"/>
<line x1="247.1" y1="141.9" x2="287.5" y2="141.9" stroke="#555" stroke-width="1.2"/>
<line x1="247.1" y1="138.9" x2="247.1" y2="144.9" stroke="#555" stroke-width="1.2"/>
<line x1="287.5" y1="138.9" x2="287.5" y2="144.9" stroke="#555" stroke-width="1.2"/>
<text x="166.0" y="145.4" text-anchor="end" font-size="8.5" fill="#333">128s×50f [128]→2</text>
<text x="268.4" y="145.4" font-size="8" fill="#555">474.35 µs</text>
<rect x="170.0" y="156.5" width="139.7" height="19.2" rx="2" fill="#4C78A8" opacity="0.80"/>
<line x1="291.2" y1="166.1" x2="349.2" y2="166.1" stroke="#555" stroke-width="1.2"/>
<line x1="291.2" y1="163.1" x2="291.2" y2="169.1" stroke="#555" stroke-width="1.2"/>
<line x1="349.2" y1="163.1" x2="349.2" y2="169.1" stroke="#555" stroke-width="1.2"/>
<text x="166.0" y="169.6" text-anchor="end" font-size="8.5" fill="#333">64s×100f [128,64]→3</text>
<text x="313.7" y="169.6" font-size="8" fill="#555">637.41 µs</text>
<rect x="170.0" y="180.7" width="148.5" height="19.2" rx="2" fill="#4C78A8" opacity="0.80"/>
<line x1="309.8" y1="190.3" x2="329.2" y2="190.3" stroke="#555" stroke-width="1.2"/>
<line x1="309.8" y1="187.3" x2="309.8" y2="193.3" stroke="#555" stroke-width="1.2"/>
<line x1="329.2" y1="187.3" x2="329.2" y2="193.3" stroke="#555" stroke-width="1.2"/>
<text x="166.0" y="193.8" text-anchor="end" font-size="8.5" fill="#333">256s×100f [256,128]→2</text>
<text x="322.5" y="193.8" font-size="8" fill="#555">674.90 µs</text>
<rect x="170.0" y="204.8" width="223.1" height="19.2" rx="2" fill="#4C78A8" opacity="0.80"/>
<line x1="366.1" y1="214.4" x2="421.8" y2="214.4" stroke="#555" stroke-width="1.2"/>
<line x1="366.1" y1="211.4" x2="366.1" y2="217.4" stroke="#555" stroke-width="1.2"/>
<line x1="421.8" y1="211.4" x2="421.8" y2="217.4" stroke="#555" stroke-width="1.2"/>
<text x="166.0" y="217.9" text-anchor="end" font-size="8.5" fill="#333">512s×100f [256,128]→2</text>
<text x="397.1" y="217.9" font-size="8" fill="#555">1.10 ms</text>
<line x1="170.0" y1="224.0" x2="450.0" y2="224.0" stroke="#BBB" stroke-width="1"/>
<rect x="484.0" y="50.0" width="472.0" height="206.0" rx="6" fill="white" stroke="#DDD" stroke-width="1"/>
<text x="720.0" y="68.0" text-anchor="middle" font-size="10.5" font-weight="bold" fill="#333">normalize_tensor (GPU / WGPU)</text>
<line x1="711.7" y1="84.0" x2="711.7" y2="224.0" stroke="#EEE" stroke-width="1"/>
<text x="711.7" y="236.0" text-anchor="middle" font-size="8" fill="#888">500.00 µs</text>
<line x1="839.4" y1="84.0" x2="839.4" y2="224.0" stroke="#EEE" stroke-width="1"/>
<text x="839.4" y="236.0" text-anchor="middle" font-size="8" fill="#888">1.00 ms</text>
<rect x="650.0" y="84.0" width="112.7" height="31.2" rx="2" fill="#F58518" opacity="0.80"/>
<line x1="732.7" y1="99.6" x2="831.2" y2="99.6" stroke="#555" stroke-width="1.2"/>
<line x1="732.7" y1="96.6" x2="732.7" y2="102.6" stroke="#555" stroke-width="1.2"/>
<line x1="831.2" y1="96.6" x2="831.2" y2="102.6" stroke="#555" stroke-width="1.2"/>
<text x="646.0" y="103.1" text-anchor="end" font-size="8.5" fill="#333">n=512</text>
<text x="766.7" y="103.1" font-size="8" fill="#555">659.77 µs</text>
<rect x="650.0" y="120.2" width="110.1" height="31.2" rx="2" fill="#F58518" opacity="0.80"/>
<line x1="730.8" y1="135.9" x2="804.5" y2="135.9" stroke="#555" stroke-width="1.2"/>
<line x1="730.8" y1="132.9" x2="730.8" y2="138.9" stroke="#555" stroke-width="1.2"/>
<line x1="804.5" y1="132.9" x2="804.5" y2="138.9" stroke="#555" stroke-width="1.2"/>
<text x="646.0" y="139.4" text-anchor="end" font-size="8.5" fill="#333">n=4096</text>
<text x="764.1" y="139.4" font-size="8" fill="#555">650.43 µs</text>
<rect x="650.0" y="156.5" width="126.6" height="31.2" rx="2" fill="#F58518" opacity="0.80"/>
<line x1="757.8" y1="172.1" x2="808.1" y2="172.1" stroke="#555" stroke-width="1.2"/>
<line x1="757.8" y1="169.1" x2="757.8" y2="175.1" stroke="#555" stroke-width="1.2"/>
<line x1="808.1" y1="169.1" x2="808.1" y2="175.1" stroke="#555" stroke-width="1.2"/>
<text x="646.0" y="175.6" text-anchor="end" font-size="8.5" fill="#333">n=32768</text>
<text x="780.6" y="175.6" font-size="8" fill="#555">711.39 µs</text>
<rect x="650.0" y="192.8" width="211.6" height="31.2" rx="2" fill="#F58518" opacity="0.80"/>
<line x1="850.1" y1="208.4" x2="878.1" y2="208.4" stroke="#555" stroke-width="1.2"/>
<line x1="850.1" y1="205.4" x2="850.1" y2="211.4" stroke="#555" stroke-width="1.2"/>
<line x1="878.1" y1="205.4" x2="878.1" y2="211.4" stroke="#555" stroke-width="1.2"/>
<text x="646.0" y="211.9" text-anchor="end" font-size="8.5" fill="#333">n=262144</text>
<text x="865.6" y="211.9" font-size="8" fill="#555">1.13 ms</text>
<line x1="650.0" y1="224.0" x2="930.0" y2="224.0" stroke="#BBB" stroke-width="1"/>
<rect x="4.0" y="260.0" width="472.0" height="206.0" rx="6" fill="white" stroke="#DDD" stroke-width="1"/>
<text x="240.0" y="278.0" text-anchor="middle" font-size="10.5" font-weight="bold" fill="#333">layer_normalize (GPU / WGPU)</text>
<line x1="154.8" y1="294.0" x2="154.8" y2="434.0" stroke="#EEE" stroke-width="1"/>
<text x="154.8" y="446.0" text-anchor="middle" font-size="8" fill="#888">200.00 µs</text>
<line x1="253.8" y1="294.0" x2="253.8" y2="434.0" stroke="#EEE" stroke-width="1"/>
<text x="253.8" y="446.0" text-anchor="middle" font-size="8" fill="#888">500.00 µs</text>
<line x1="328.6" y1="294.0" x2="328.6" y2="434.0" stroke="#EEE" stroke-width="1"/>
<text x="328.6" y="446.0" text-anchor="middle" font-size="8" fill="#888">1.00 ms</text>
<line x1="403.5" y1="294.0" x2="403.5" y2="434.0" stroke="#EEE" stroke-width="1"/>
<text x="403.5" y="446.0" text-anchor="middle" font-size="8" fill="#888">2.00 ms</text>
<rect x="170.0" y="294.0" width="64.6" height="31.2" rx="2" fill="#E45756" opacity="0.80"/>
<line x1="219.9" y1="309.6" x2="281.7" y2="309.6" stroke="#555" stroke-width="1.2"/>
<line x1="219.9" y1="306.6" x2="219.9" y2="312.6" stroke="#555" stroke-width="1.2"/>
<line x1="281.7" y1="306.6" x2="281.7" y2="312.6" stroke="#555" stroke-width="1.2"/>
<text x="166.0" y="313.1" text-anchor="end" font-size="8.5" fill="#333">128×64</text>
<text x="238.6" y="313.1" font-size="8" fill="#555">418.61 µs</text>
<rect x="170.0" y="330.2" width="84.5" height="31.2" rx="2" fill="#E45756" opacity="0.80"/>
<line x1="231.6" y1="345.9" x2="369.4" y2="345.9" stroke="#555" stroke-width="1.2"/>
<line x1="231.6" y1="342.9" x2="231.6" y2="348.9" stroke="#555" stroke-width="1.2"/>
<line x1="369.4" y1="342.9" x2="369.4" y2="348.9" stroke="#555" stroke-width="1.2"/>
<text x="166.0" y="349.4" text-anchor="end" font-size="8.5" fill="#333">512×128</text>
<text x="258.5" y="349.4" font-size="8" fill="#555">503.48 µs</text>
<rect x="170.0" y="366.5" width="122.4" height="31.2" rx="2" fill="#E45756" opacity="0.80"/>
<line x1="267.5" y1="382.1" x2="383.8" y2="382.1" stroke="#555" stroke-width="1.2"/>
<line x1="267.5" y1="379.1" x2="267.5" y2="385.1" stroke="#555" stroke-width="1.2"/>
<line x1="383.8" y1="379.1" x2="383.8" y2="385.1" stroke="#555" stroke-width="1.2"/>
<text x="166.0" y="385.6" text-anchor="end" font-size="8.5" fill="#333">1000×256</text>
<text x="296.4" y="385.6" font-size="8" fill="#555">715.07 µs</text>
<rect x="170.0" y="402.8" width="239.9" height="31.2" rx="2" fill="#E45756" opacity="0.80"/>
<line x1="389.3" y1="418.4" x2="447.8" y2="418.4" stroke="#555" stroke-width="1.2"/>
<line x1="389.3" y1="415.4" x2="389.3" y2="421.4" stroke="#555" stroke-width="1.2"/>
<line x1="447.8" y1="415.4" x2="447.8" y2="421.4" stroke="#555" stroke-width="1.2"/>
<text x="166.0" y="421.9" text-anchor="end" font-size="8.5" fill="#333">4000×512</text>
<text x="413.9" y="421.9" font-size="8" fill="#555">2.12 ms</text>
<line x1="170.0" y1="434.0" x2="450.0" y2="434.0" stroke="#BBB" stroke-width="1"/>
</svg>
