<svg xmlns="http://www.w3.org/2000/svg" width="960" height="754.0" font-family="monospace,Arial,sans-serif">
<rect width="960" height="754.0" fill="#FAFAFA"/>
<text x="480.0" y="22" text-anchor="middle" font-size="14" font-weight="bold" fill="#222">Apple M3 Max vs Apple M3 Max — CPU/GPU Comparison</text>
<rect x="380.0" y="30" width="12" height="10" fill="#4C78A8" rx="2"/>
<text x="395.0" y="39" font-size="9" fill="#333">CPU (NdArray)</text>
<rect x="485.0" y="30" width="12" height="10" fill="#F58518" rx="2"/>
<text x="500.0" y="39" font-size="9" fill="#333">GPU (WGPU/Metal)</text>
<rect x="4" y="52.0" width="952.0" height="266.0" rx="6" fill="white" stroke="#DDD" stroke-width="1"/>
<text x="480.0" y="80.0" text-anchor="middle" font-size="11" font-weight="bold" fill="#333">model_forward</text>
<line x1="228.5" y1="118.0" x2="228.5" y2="278.0" stroke="#EBEBEB" stroke-width="1"/>
<text x="228.5" y="290.0" text-anchor="middle" font-size="8" fill="#999">20.00 µs</text>
<line x1="380.3" y1="118.0" x2="380.3" y2="278.0" stroke="#EBEBEB" stroke-width="1"/>
<text x="380.3" y="290.0" text-anchor="middle" font-size="8" fill="#999">50.00 µs</text>
<line x1="495.2" y1="118.0" x2="495.2" y2="278.0" stroke="#EBEBEB" stroke-width="1"/>
<text x="495.2" y="290.0" text-anchor="middle" font-size="8" fill="#999">100.00 µs</text>
<line x1="610.0" y1="118.0" x2="610.0" y2="278.0" stroke="#EBEBEB" stroke-width="1"/>
<text x="610.0" y="290.0" text-anchor="middle" font-size="8" fill="#999">200.00 µs</text>
<line x1="761.9" y1="118.0" x2="761.9" y2="278.0" stroke="#EBEBEB" stroke-width="1"/>
<text x="761.9" y="290.0" text-anchor="middle" font-size="8" fill="#999">500.00 µs</text>
<line x1="876.7" y1="118.0" x2="876.7" y2="278.0" stroke="#EBEBEB" stroke-width="1"/>
<text x="876.7" y="290.0" text-anchor="middle" font-size="8" fill="#999">1.00 ms</text>
<rect x="185.0" y="118.0" width="134.0" height="11.0" rx="2" fill="#4C78A8" opacity="0.85"/>
<text x="323.0" y="127.0" font-size="7.5" fill="#555">34.54 µs</text>
<rect x="185.0" y="131.0" width="611.8" height="11.0" rx="2" fill="#F58518" opacity="0.85"/>
<text x="800.8" y="140.0" font-size="7.5" fill="#555">617.36 µs</text>
<text x="892.0" y="133.5" font-size="8.5" font-weight="bold" fill="#888">0.06×</text>
<text x="181.0" y="133.5" text-anchor="end" font-size="8.5" fill="#333">16s×10f [32]→2</text>
<rect x="185.0" y="152.0" width="132.3" height="11.0" rx="2" fill="#4C78A8" opacity="0.85"/>
<text x="321.3" y="161.0" font-size="7.5" fill="#555">34.19 µs</text>
<rect x="185.0" y="165.0" width="570.5" height="11.0" rx="2" fill="#F58518" opacity="0.85"/>
<text x="759.5" y="174.0" font-size="7.5" fill="#555">481.15 µs</text>
<text x="892.0" y="167.5" font-size="8.5" font-weight="bold" fill="#888">0.07×</text>
<text x="181.0" y="167.5" text-anchor="end" font-size="8.5" fill="#333">64s×50f [64]→2</text>
<rect x="185.0" y="186.0" width="221.7" height="11.0" rx="2" fill="#4C78A8" opacity="0.85"/>
<text x="410.7" y="195.0" font-size="7.5" fill="#555">58.62 µs</text>
<rect x="185.0" y="199.0" width="568.5" height="11.0" rx="2" fill="#F58518" opacity="0.85"/>
<text x="757.5" y="208.0" font-size="7.5" fill="#555">475.36 µs</text>
<text x="892.0" y="201.5" font-size="8.5" font-weight="bold" fill="#888">0.12×</text>
<text x="181.0" y="201.5" text-anchor="end" font-size="8.5" fill="#333">128s×50f [128]→2</text>
<rect x="185.0" y="220.0" width="273.8" height="11.0" rx="2" fill="#4C78A8" opacity="0.85"/>
<text x="462.8" y="229.0" font-size="7.5" fill="#555">80.29 µs</text>
<rect x="185.0" y="233.0" width="629.8" height="11.0" rx="2" fill="#F58518" opacity="0.85"/>
<text x="818.8" y="242.0" font-size="7.5" fill="#555">688.03 µs</text>
<text x="892.0" y="235.5" font-size="8.5" font-weight="bold" fill="#888">0.12×</text>
<text x="181.0" y="235.5" text-anchor="end" font-size="8.5" fill="#333">64s×100f [128,64]→3</text>
<rect x="185.0" y="254.0" width="488.4" height="11.0" rx="2" fill="#4C78A8" opacity="0.85"/>
<text x="677.4" y="263.0" font-size="7.5" fill="#555">293.25 µs</text>
<rect x="185.0" y="267.0" width="630.4" height="11.0" rx="2" fill="#F58518" opacity="0.85"/>
<text x="819.4" y="276.0" font-size="7.5" fill="#555">690.56 µs</text>
<text x="892.0" y="269.5" font-size="8.5" font-weight="bold" fill="#888">0.42×</text>
<text x="181.0" y="269.5" text-anchor="end" font-size="8.5" fill="#333">256s×100f [256,128]→2</text>
<line x1="185.0" y1="278.0" x2="888.0" y2="278.0" stroke="#BBB" stroke-width="1"/>
<rect x="4" y="328.0" width="952.0" height="198.0" rx="6" fill="white" stroke="#DDD" stroke-width="1"/>
<text x="480.0" y="356.0" text-anchor="middle" font-size="11" font-weight="bold" fill="#333">normalize_tensor</text>
<line x1="231.0" y1="394.0" x2="231.0" y2="486.0" stroke="#EBEBEB" stroke-width="1"/>
<text x="231.0" y="498.0" text-anchor="middle" font-size="8" fill="#999">2.00 µs</text>
<line x1="326.3" y1="394.0" x2="326.3" y2="486.0" stroke="#EBEBEB" stroke-width="1"/>
<text x="326.3" y="498.0" text-anchor="middle" font-size="8" fill="#999">5.00 µs</text>
<line x1="398.5" y1="394.0" x2="398.5" y2="486.0" stroke="#EBEBEB" stroke-width="1"/>
<text x="398.5" y="498.0" text-anchor="middle" font-size="8" fill="#999">10.00 µs</text>
<line x1="470.6" y1="394.0" x2="470.6" y2="486.0" stroke="#EBEBEB" stroke-width="1"/>
<text x="470.6" y="498.0" text-anchor="middle" font-size="8" fill="#999">20.00 µs</text>
<line x1="566.0" y1="394.0" x2="566.0" y2="486.0" stroke="#EBEBEB" stroke-width="1"/>
<text x="566.0" y="498.0" text-anchor="middle" font-size="8" fill="#999">50.00 µs</text>
<line x1="638.1" y1="394.0" x2="638.1" y2="486.0" stroke="#EBEBEB" stroke-width="1"/>
<text x="638.1" y="498.0" text-anchor="middle" font-size="8" fill="#999">100.00 µs</text>
<line x1="710.2" y1="394.0" x2="710.2" y2="486.0" stroke="#EBEBEB" stroke-width="1"/>
<text x="710.2" y="498.0" text-anchor="middle" font-size="8" fill="#999">200.00 µs</text>
<line x1="805.6" y1="394.0" x2="805.6" y2="486.0" stroke="#EBEBEB" stroke-width="1"/>
<text x="805.6" y="498.0" text-anchor="middle" font-size="8" fill="#999">500.00 µs</text>
<line x1="877.7" y1="394.0" x2="877.7" y2="486.0" stroke="#EBEBEB" stroke-width="1"/>
<text x="877.7" y="498.0" text-anchor="middle" font-size="8" fill="#999">1.00 ms</text>
<rect x="185.0" y="394.0" width="83.1" height="11.0" rx="2" fill="#4C78A8" opacity="0.85"/>
<text x="272.1" y="403.0" font-size="7.5" fill="#555">2.86 µs</text>
<rect x="185.0" y="407.0" width="654.9" height="11.0" rx="2" fill="#F58518" opacity="0.85"/>
<text x="843.9" y="416.0" font-size="7.5" fill="#555">695.04 µs</text>
<text x="892.0" y="409.5" font-size="8.5" font-weight="bold" fill="#888">0.00×</text>
<text x="181.0" y="409.5" text-anchor="end" font-size="8.5" fill="#333">n=512</text>
<rect x="185.0" y="428.0" width="209.1" height="11.0" rx="2" fill="#4C78A8" opacity="0.85"/>
<text x="398.1" y="437.0" font-size="7.5" fill="#555">9.59 µs</text>
<rect x="185.0" y="441.0" width="649.8" height="11.0" rx="2" fill="#F58518" opacity="0.85"/>
<text x="838.8" y="450.0" font-size="7.5" fill="#555">661.72 µs</text>
<text x="892.0" y="443.5" font-size="8.5" font-weight="bold" fill="#888">0.01×</text>
<text x="181.0" y="443.5" text-anchor="end" font-size="8.5" fill="#333">n=4096</text>
<rect x="185.0" y="462.0" width="416.4" height="11.0" rx="2" fill="#4C78A8" opacity="0.85"/>
<text x="605.4" y="471.0" font-size="7.5" fill="#555">70.28 µs</text>
<rect x="185.0" y="475.0" width="657.4" height="11.0" rx="2" fill="#F58518" opacity="0.85"/>
<text x="846.4" y="484.0" font-size="7.5" fill="#555">712.00 µs</text>
<text x="892.0" y="477.5" font-size="8.5" font-weight="bold" fill="#888">0.10×</text>
<text x="181.0" y="477.5" text-anchor="end" font-size="8.5" fill="#333">n=32768</text>
<line x1="185.0" y1="486.0" x2="888.0" y2="486.0" stroke="#BBB" stroke-width="1"/>
<rect x="4" y="536.0" width="952.0" height="198.0" rx="6" fill="white" stroke="#DDD" stroke-width="1"/>
<text x="480.0" y="564.0" text-anchor="middle" font-size="11" font-weight="bold" fill="#333">layer_normalize</text>
<line x1="200.5" y1="602.0" x2="200.5" y2="694.0" stroke="#EBEBEB" stroke-width="1"/>
<text x="200.5" y="706.0" text-anchor="middle" font-size="8" fill="#999">10.00 µs</text>
<line x1="303.4" y1="602.0" x2="303.4" y2="694.0" stroke="#EBEBEB" stroke-width="1"/>
<text x="303.4" y="706.0" text-anchor="middle" font-size="8" fill="#999">20.00 µs</text>
<line x1="439.4" y1="602.0" x2="439.4" y2="694.0" stroke="#EBEBEB" stroke-width="1"/>
<text x="439.4" y="706.0" text-anchor="middle" font-size="8" fill="#999">50.00 µs</text>
<line x1="542.4" y1="602.0" x2="542.4" y2="694.0" stroke="#EBEBEB" stroke-width="1"/>
<text x="542.4" y="706.0" text-anchor="middle" font-size="8" fill="#999">100.00 µs</text>
<line x1="645.3" y1="602.0" x2="645.3" y2="694.0" stroke="#EBEBEB" stroke-width="1"/>
<text x="645.3" y="706.0" text-anchor="middle" font-size="8" fill="#999">200.00 µs</text>
<line x1="781.3" y1="602.0" x2="781.3" y2="694.0" stroke="#EBEBEB" stroke-width="1"/>
<text x="781.3" y="706.0" text-anchor="middle" font-size="8" fill="#999">500.00 µs</text>
<line x1="884.2" y1="602.0" x2="884.2" y2="694.0" stroke="#EBEBEB" stroke-width="1"/>
<text x="884.2" y="706.0" text-anchor="middle" font-size="8" fill="#999">1.00 ms</text>
<rect x="185.0" y="602.0" width="118.6" height="11.0" rx="2" fill="#4C78A8" opacity="0.85"/>
<text x="307.6" y="611.0" font-size="7.5" fill="#555">20.02 µs</text>
<rect x="185.0" y="615.0" width="587.4" height="11.0" rx="2" fill="#F58518" opacity="0.85"/>
<text x="776.4" y="624.0" font-size="7.5" fill="#555">470.85 µs</text>
<text x="892.0" y="617.5" font-size="8.5" font-weight="bold" fill="#888">0.04×</text>
<text x="181.0" y="617.5" text-anchor="end" font-size="8.5" fill="#333">128×64</text>
<rect x="185.0" y="636.0" width="380.9" height="11.0" rx="2" fill="#4C78A8" opacity="0.85"/>
<text x="569.9" y="645.0" font-size="7.5" fill="#555">117.17 µs</text>
<rect x="185.0" y="649.0" width="596.4" height="11.0" rx="2" fill="#F58518" opacity="0.85"/>
<text x="785.4" y="658.0" font-size="7.5" fill="#555">500.43 µs</text>
<text x="892.0" y="651.5" font-size="8.5" font-weight="bold" fill="#888">0.23×</text>
<text x="181.0" y="651.5" text-anchor="end" font-size="8.5" fill="#333">512×128</text>
<rect x="185.0" y="670.0" width="570.5" height="11.0" rx="2" fill="#4C78A8" opacity="0.85"/>
<text x="759.5" y="679.0" font-size="7.5" fill="#555">420.11 µs</text>
<rect x="185.0" y="683.0" width="637.9" height="11.0" rx="2" fill="#F58518" opacity="0.85"/>
<text x="826.9" y="692.0" font-size="7.5" fill="#555">661.83 µs</text>
<text x="892.0" y="685.5" font-size="8.5" font-weight="bold" fill="#888">0.63×</text>
<text x="181.0" y="685.5" text-anchor="end" font-size="8.5" fill="#333">1000×256</text>
<line x1="185.0" y1="694.0" x2="888.0" y2="694.0" stroke="#BBB" stroke-width="1"/>
</svg>
