<svg xmlns="http://www.w3.org/2000/svg" width="960" height="698" font-family="monospace,Arial,sans-serif">
<rect width="960" height="698" fill="#FAFAFA"/>
<text x="480" y="30" text-anchor="middle" font-size="15" font-weight="bold" fill="#222">CPU: Apple Silicon (aarch64) — fast-umap Benchmark Results</text>
<rect x="4.0" y="50.0" width="472.0" height="206.0" rx="6" fill="white" stroke="#DDD" stroke-width="1"/>
<text x="240.0" y="68.0" text-anchor="middle" font-size="10.5" font-weight="bold" fill="#333">normalize_data</text>
<line x1="164.2" y1="84.0" x2="164.2" y2="224.0" stroke="#EEE" stroke-width="1"/>
<text x="164.2" y="236.0" text-anchor="middle" font-size="8" fill="#888">5.00 ms</text>
<line x1="214.4" y1="84.0" x2="214.4" y2="224.0" stroke="#EEE" stroke-width="1"/>
<text x="214.4" y="236.0" text-anchor="middle" font-size="8" fill="#888">10.00 ms</text>
<line x1="264.7" y1="84.0" x2="264.7" y2="224.0" stroke="#EEE" stroke-width="1"/>
<text x="264.7" y="236.0" text-anchor="middle" font-size="8" fill="#888">20.00 ms</text>
<line x1="331.1" y1="84.0" x2="331.1" y2="224.0" stroke="#EEE" stroke-width="1"/>
<text x="331.1" y="236.0" text-anchor="middle" font-size="8" fill="#888">50.00 ms</text>
<line x1="381.4" y1="84.0" x2="381.4" y2="224.0" stroke="#EEE" stroke-width="1"/>
<text x="381.4" y="236.0" text-anchor="middle" font-size="8" fill="#888">100.00 ms</text>
<line x1="431.6" y1="84.0" x2="431.6" y2="224.0" stroke="#EEE" stroke-width="1"/>
<text x="431.6" y="236.0" text-anchor="middle" font-size="8" fill="#888">200.00 ms</text>
<rect x="170.0" y="84.0" width="43.3" height="31.2" rx="2" fill="#4C78A8" opacity="0.80"/>
<line x1="203.7" y1="99.6" x2="224.0" y2="99.6" stroke="#555" stroke-width="1.2"/>
<line x1="203.7" y1="96.6" x2="203.7" y2="102.6" stroke="#555" stroke-width="1.2"/>
<line x1="224.0" y1="96.6" x2="224.0" y2="102.6" stroke="#555" stroke-width="1.2"/>
<text x="166.0" y="103.1" text-anchor="end" font-size="8.5" fill="#333">100×10</text>
<text x="217.3" y="103.1" font-size="8" fill="#555">9.85 ms</text>
<rect x="170.0" y="120.2" width="147.6" height="31.2" rx="2" fill="#4C78A8" opacity="0.80"/>
<line x1="308.9" y1="135.9" x2="333.1" y2="135.9" stroke="#555" stroke-width="1.2"/>
<line x1="308.9" y1="132.9" x2="308.9" y2="138.9" stroke="#555" stroke-width="1.2"/>
<line x1="333.1" y1="132.9" x2="333.1" y2="138.9" stroke="#555" stroke-width="1.2"/>
<text x="166.0" y="139.4" text-anchor="end" font-size="8.5" fill="#333">500×30</text>
<text x="321.6" y="139.4" font-size="8" fill="#555">41.49 ms</text>
<rect x="170.0" y="156.5" width="188.3" height="31.2" rx="2" fill="#4C78A8" opacity="0.80"/>
<line x1="352.6" y1="172.1" x2="364.2" y2="172.1" stroke="#555" stroke-width="1.2"/>
<line x1="352.6" y1="169.1" x2="352.6" y2="175.1" stroke="#555" stroke-width="1.2"/>
<line x1="364.2" y1="169.1" x2="364.2" y2="175.1" stroke="#555" stroke-width="1.2"/>
<text x="166.0" y="175.6" text-anchor="end" font-size="8.5" fill="#333">1000×50</text>
<text x="362.3" y="175.6" font-size="8" fill="#555">72.78 ms</text>
<rect x="170.0" y="192.8" width="253.1" height="31.2" rx="2" fill="#4C78A8" opacity="0.80"/>
<line x1="421.1" y1="208.4" x2="425.1" y2="208.4" stroke="#555" stroke-width="1.2"/>
<line x1="421.1" y1="205.4" x2="421.1" y2="211.4" stroke="#555" stroke-width="1.2"/>
<line x1="425.1" y1="205.4" x2="425.1" y2="211.4" stroke="#555" stroke-width="1.2"/>
<text x="166.0" y="211.9" text-anchor="end" font-size="8.5" fill="#333">5000×100</text>
<text x="427.1" y="211.9" font-size="8" fill="#555">177.67 ms</text>
<line x1="170.0" y1="224.0" x2="450.0" y2="224.0" stroke="#BBB" stroke-width="1"/>
<rect x="484.0" y="50.0" width="472.0" height="206.0" rx="6" fill="white" stroke="#DDD" stroke-width="1"/>
<text x="720.0" y="68.0" text-anchor="middle" font-size="10.5" font-weight="bold" fill="#333">generate_test_data</text>
<line x1="667.7" y1="84.0" x2="667.7" y2="224.0" stroke="#EEE" stroke-width="1"/>
<text x="667.7" y="236.0" text-anchor="middle" font-size="8" fill="#888">5.00 µs</text>
<line x1="695.1" y1="84.0" x2="695.1" y2="224.0" stroke="#EEE" stroke-width="1"/>
<text x="695.1" y="236.0" text-anchor="middle" font-size="8" fill="#888">10.00 µs</text>
<line x1="722.6" y1="84.0" x2="722.6" y2="224.0" stroke="#EEE" stroke-width="1"/>
<text x="722.6" y="236.0" text-anchor="middle" font-size="8" fill="#888">20.00 µs</text>
<line x1="758.9" y1="84.0" x2="758.9" y2="224.0" stroke="#EEE" stroke-width="1"/>
<text x="758.9" y="236.0" text-anchor="middle" font-size="8" fill="#888">50.00 µs</text>
<line x1="786.4" y1="84.0" x2="786.4" y2="224.0" stroke="#EEE" stroke-width="1"/>
<text x="786.4" y="236.0" text-anchor="middle" font-size="8" fill="#888">100.00 µs</text>
<line x1="813.8" y1="84.0" x2="813.8" y2="224.0" stroke="#EEE" stroke-width="1"/>
<text x="813.8" y="236.0" text-anchor="middle" font-size="8" fill="#888">200.00 µs</text>
<line x1="850.1" y1="84.0" x2="850.1" y2="224.0" stroke="#EEE" stroke-width="1"/>
<text x="850.1" y="236.0" text-anchor="middle" font-size="8" fill="#888">500.00 µs</text>
<line x1="877.6" y1="84.0" x2="877.6" y2="224.0" stroke="#EEE" stroke-width="1"/>
<text x="877.6" y="236.0" text-anchor="middle" font-size="8" fill="#888">1.00 ms</text>
<line x1="905.1" y1="84.0" x2="905.1" y2="224.0" stroke="#EEE" stroke-width="1"/>
<text x="905.1" y="236.0" text-anchor="middle" font-size="8" fill="#888">2.00 ms</text>
<rect x="650.0" y="84.0" width="23.7" height="31.2" rx="2" fill="#F58518" opacity="0.80"/>
<line x1="668.3" y1="99.6" x2="696.6" y2="99.6" stroke="#555" stroke-width="1.2"/>
<line x1="668.3" y1="96.6" x2="668.3" y2="102.6" stroke="#555" stroke-width="1.2"/>
<line x1="696.6" y1="96.6" x2="696.6" y2="102.6" stroke="#555" stroke-width="1.2"/>
<text x="646.0" y="103.1" text-anchor="end" font-size="8.5" fill="#333">100×10</text>
<text x="677.7" y="103.1" font-size="8" fill="#555">5.82 µs</text>
<rect x="650.0" y="120.2" width="117.5" height="31.2" rx="2" fill="#F58518" opacity="0.80"/>
<line x1="766.6" y1="135.9" x2="775.4" y2="135.9" stroke="#555" stroke-width="1.2"/>
<line x1="766.6" y1="132.9" x2="766.6" y2="138.9" stroke="#555" stroke-width="1.2"/>
<line x1="775.4" y1="132.9" x2="775.4" y2="138.9" stroke="#555" stroke-width="1.2"/>
<text x="646.0" y="139.4" text-anchor="end" font-size="8.5" fill="#333">500×30</text>
<text x="771.5" y="139.4" font-size="8" fill="#555">62.15 µs</text>
<rect x="650.0" y="156.5" width="164.6" height="31.2" rx="2" fill="#F58518" opacity="0.80"/>
<line x1="813.5" y1="172.1" x2="825.5" y2="172.1" stroke="#555" stroke-width="1.2"/>
<line x1="813.5" y1="169.1" x2="813.5" y2="175.1" stroke="#555" stroke-width="1.2"/>
<line x1="825.5" y1="169.1" x2="825.5" y2="175.1" stroke="#555" stroke-width="1.2"/>
<text x="646.0" y="175.6" text-anchor="end" font-size="8.5" fill="#333">1000×50</text>
<text x="818.6" y="175.6" font-size="8" fill="#555">204.06 µs</text>
<rect x="650.0" y="192.8" width="265.3" height="31.2" rx="2" fill="#F58518" opacity="0.80"/>
<line x1="909.9" y1="208.4" x2="923.6" y2="208.4" stroke="#555" stroke-width="1.2"/>
<line x1="909.9" y1="205.4" x2="909.9" y2="211.4" stroke="#555" stroke-width="1.2"/>
<line x1="923.6" y1="205.4" x2="923.6" y2="211.4" stroke="#555" stroke-width="1.2"/>
<text x="646.0" y="211.9" text-anchor="end" font-size="8.5" fill="#333">5000×100</text>
<text x="919.3" y="211.9" font-size="8" fill="#555">2.59 ms</text>
<line x1="650.0" y1="224.0" x2="930.0" y2="224.0" stroke="#BBB" stroke-width="1"/>
<rect x="4.0" y="260.0" width="472.0" height="206.0" rx="6" fill="white" stroke="#DDD" stroke-width="1"/>
<text x="240.0" y="278.0" text-anchor="middle" font-size="10.5" font-weight="bold" fill="#333">tensor_convert (Vec↔Tensor)</text>
<line x1="153.7" y1="294.0" x2="153.7" y2="434.0" stroke="#EEE" stroke-width="1"/>
<text x="153.7" y="446.0" text-anchor="middle" font-size="8" fill="#888">10.00 µs</text>
<line x1="205.9" y1="294.0" x2="205.9" y2="434.0" stroke="#EEE" stroke-width="1"/>
<text x="205.9" y="446.0" text-anchor="middle" font-size="8" fill="#888">20.00 µs</text>
<line x1="274.8" y1="294.0" x2="274.8" y2="434.0" stroke="#EEE" stroke-width="1"/>
<text x="274.8" y="446.0" text-anchor="middle" font-size="8" fill="#888">50.00 µs</text>
<line x1="327.0" y1="294.0" x2="327.0" y2="434.0" stroke="#EEE" stroke-width="1"/>
<text x="327.0" y="446.0" text-anchor="middle" font-size="8" fill="#888">100.00 µs</text>
<line x1="379.1" y1="294.0" x2="379.1" y2="434.0" stroke="#EEE" stroke-width="1"/>
<text x="379.1" y="446.0" text-anchor="middle" font-size="8" fill="#888">200.00 µs</text>
<line x1="448.1" y1="294.0" x2="448.1" y2="434.0" stroke="#EEE" stroke-width="1"/>
<text x="448.1" y="446.0" text-anchor="middle" font-size="8" fill="#888">500.00 µs</text>
<rect x="170.0" y="294.0" width="45.0" height="43.3" rx="2" fill="#E45756" opacity="0.80"/>
<line x1="207.1" y1="315.7" x2="260.7" y2="315.7" stroke="#555" stroke-width="1.2"/>
<line x1="207.1" y1="312.7" x2="207.1" y2="318.7" stroke="#555" stroke-width="1.2"/>
<line x1="260.7" y1="312.7" x2="260.7" y2="318.7" stroke="#555" stroke-width="1.2"/>
<text x="166.0" y="319.2" text-anchor="end" font-size="8.5" fill="#333">100×10</text>
<text x="219.0" y="319.2" font-size="8" fill="#555">22.57 µs</text>
<rect x="170.0" y="342.3" width="181.5" height="43.3" rx="2" fill="#E45756" opacity="0.80"/>
<line x1="346.3" y1="364.0" x2="361.7" y2="364.0" stroke="#555" stroke-width="1.2"/>
<line x1="346.3" y1="361.0" x2="346.3" y2="367.0" stroke="#555" stroke-width="1.2"/>
<line x1="361.7" y1="361.0" x2="361.7" y2="367.0" stroke="#555" stroke-width="1.2"/>
<text x="166.0" y="367.5" text-anchor="end" font-size="8.5" fill="#333">500×30</text>
<text x="355.5" y="367.5" font-size="8" fill="#555">138.42 µs</text>
<rect x="170.0" y="390.7" width="252.0" height="43.3" rx="2" fill="#E45756" opacity="0.80"/>
<line x1="416.3" y1="412.3" x2="432.1" y2="412.3" stroke="#555" stroke-width="1.2"/>
<line x1="416.3" y1="409.3" x2="416.3" y2="415.3" stroke="#555" stroke-width="1.2"/>
<line x1="432.1" y1="409.3" x2="432.1" y2="415.3" stroke="#555" stroke-width="1.2"/>
<text x="166.0" y="415.8" text-anchor="end" font-size="8.5" fill="#333">1000×50</text>
<text x="426.0" y="415.8" font-size="8" fill="#555">353.69 µs</text>
<line x1="170.0" y1="434.0" x2="450.0" y2="434.0" stroke="#BBB" stroke-width="1"/>
<rect x="484.0" y="260.0" width="472.0" height="206.0" rx="6" fill="white" stroke="#DDD" stroke-width="1"/>
<text x="720.0" y="278.0" text-anchor="middle" font-size="10.5" font-weight="bold" fill="#333">model_forward (CPU / NdArray)</text>
<line x1="631.7" y1="294.0" x2="631.7" y2="434.0" stroke="#EEE" stroke-width="1"/>
<text x="631.7" y="446.0" text-anchor="middle" font-size="8" fill="#888">50.00 µs</text>
<line x1="696.0" y1="294.0" x2="696.0" y2="434.0" stroke="#EEE" stroke-width="1"/>
<text x="696.0" y="446.0" text-anchor="middle" font-size="8" fill="#888">100.00 µs</text>
<line x1="760.4" y1="294.0" x2="760.4" y2="434.0" stroke="#EEE" stroke-width="1"/>
<text x="760.4" y="446.0" text-anchor="middle" font-size="8" fill="#888">200.00 µs</text>
<line x1="845.5" y1="294.0" x2="845.5" y2="434.0" stroke="#EEE" stroke-width="1"/>
<text x="845.5" y="446.0" text-anchor="middle" font-size="8" fill="#888">500.00 µs</text>
<line x1="909.8" y1="294.0" x2="909.8" y2="434.0" stroke="#EEE" stroke-width="1"/>
<text x="909.8" y="446.0" text-anchor="middle" font-size="8" fill="#888">1.00 ms</text>
<rect x="650.0" y="294.0" width="63.6" height="24.0" rx="2" fill="#72B7B2" opacity="0.80"/>
<line x1="651.7" y1="306.0" x2="991.2" y2="306.0" stroke="#555" stroke-width="1.2"/>
<line x1="651.7" y1="303.0" x2="651.7" y2="309.0" stroke="#555" stroke-width="1.2"/>
<line x1="991.2" y1="303.0" x2="991.2" y2="309.0" stroke="#555" stroke-width="1.2"/>
<text x="646.0" y="309.5" text-anchor="end" font-size="8.5" fill="#333">16s×10f [32]→2</text>
<text x="717.6" y="309.5" font-size="8" fill="#555">120.88 µs</text>
<rect x="650.0" y="323.0" width="55.5" height="24.0" rx="2" fill="#72B7B2" opacity="0.80"/>
<line x1="651.7" y1="335.0" x2="937.8" y2="335.0" stroke="#555" stroke-width="1.2"/>
<line x1="651.7" y1="332.0" x2="651.7" y2="338.0" stroke="#555" stroke-width="1.2"/>
<line x1="937.8" y1="332.0" x2="937.8" y2="338.0" stroke="#555" stroke-width="1.2"/>
<text x="646.0" y="338.5" text-anchor="end" font-size="8.5" fill="#333">64s×50f [64]→2</text>
<text x="709.5" y="338.5" font-size="8" fill="#555">110.76 µs</text>
<rect x="650.0" y="352.0" width="135.9" height="24.0" rx="2" fill="#72B7B2" opacity="0.80"/>
<line x1="740.8" y1="364.0" x2="903.5" y2="364.0" stroke="#555" stroke-width="1.2"/>
<line x1="740.8" y1="361.0" x2="740.8" y2="367.0" stroke="#555" stroke-width="1.2"/>
<line x1="903.5" y1="361.0" x2="903.5" y2="367.0" stroke="#555" stroke-width="1.2"/>
<text x="646.0" y="367.5" text-anchor="end" font-size="8.5" fill="#333">128s×50f [128]→2</text>
<text x="789.9" y="367.5" font-size="8" fill="#555">263.29 µs</text>
<rect x="650.0" y="381.0" width="152.6" height="24.0" rx="2" fill="#72B7B2" opacity="0.80"/>
<line x1="795.3" y1="393.0" x2="815.6" y2="393.0" stroke="#555" stroke-width="1.2"/>
<line x1="795.3" y1="390.0" x2="795.3" y2="396.0" stroke="#555" stroke-width="1.2"/>
<line x1="815.6" y1="390.0" x2="815.6" y2="396.0" stroke="#555" stroke-width="1.2"/>
<text x="646.0" y="396.5" text-anchor="end" font-size="8.5" fill="#333">64s×100f [128,64]→3</text>
<text x="806.6" y="396.5" font-size="8" fill="#555">315.22 µs</text>
<rect x="650.0" y="410.0" width="245.5" height="24.0" rx="2" fill="#72B7B2" opacity="0.80"/>
<line x1="887.9" y1="422.0" x2="912.6" y2="422.0" stroke="#555" stroke-width="1.2"/>
<line x1="887.9" y1="419.0" x2="887.9" y2="425.0" stroke="#555" stroke-width="1.2"/>
<line x1="912.6" y1="419.0" x2="912.6" y2="425.0" stroke="#555" stroke-width="1.2"/>
<text x="646.0" y="425.5" text-anchor="end" font-size="8.5" fill="#333">256s×100f [256,128]→2</text>
<text x="899.5" y="425.5" font-size="8" fill="#555">857.11 µs</text>
<line x1="650.0" y1="434.0" x2="930.0" y2="434.0" stroke="#BBB" stroke-width="1"/>
<rect x="4.0" y="470.0" width="472.0" height="206.0" rx="6" fill="white" stroke="#DDD" stroke-width="1"/>
<text x="240.0" y="488.0" text-anchor="middle" font-size="10.5" font-weight="bold" fill="#333">normalize_tensor (1-D min-max)</text>
<line x1="162.2" y1="504.0" x2="162.2" y2="644.0" stroke="#EEE" stroke-width="1"/>
<text x="162.2" y="656.0" text-anchor="middle" font-size="8" fill="#888">2.00 µs</text>
<line x1="215.5" y1="504.0" x2="215.5" y2="644.0" stroke="#EEE" stroke-width="1"/>
<text x="215.5" y="656.0" text-anchor="middle" font-size="8" fill="#888">5.00 µs</text>
<line x1="255.8" y1="504.0" x2="255.8" y2="644.0" stroke="#EEE" stroke-width="1"/>
<text x="255.8" y="656.0" text-anchor="middle" font-size="8" fill="#888">10.00 µs</text>
<line x1="296.1" y1="504.0" x2="296.1" y2="644.0" stroke="#EEE" stroke-width="1"/>
<text x="296.1" y="656.0" text-anchor="middle" font-size="8" fill="#888">20.00 µs</text>
<line x1="349.3" y1="504.0" x2="349.3" y2="644.0" stroke="#EEE" stroke-width="1"/>
<text x="349.3" y="656.0" text-anchor="middle" font-size="8" fill="#888">50.00 µs</text>
<line x1="389.6" y1="504.0" x2="389.6" y2="644.0" stroke="#EEE" stroke-width="1"/>
<text x="389.6" y="656.0" text-anchor="middle" font-size="8" fill="#888">100.00 µs</text>
<line x1="429.9" y1="504.0" x2="429.9" y2="644.0" stroke="#EEE" stroke-width="1"/>
<text x="429.9" y="656.0" text-anchor="middle" font-size="8" fill="#888">200.00 µs</text>
<rect x="170.0" y="504.0" width="57.0" height="31.2" rx="2" fill="#54A24B" opacity="0.80"/>
<line x1="208.8" y1="519.6" x2="300.5" y2="519.6" stroke="#555" stroke-width="1.2"/>
<line x1="208.8" y1="516.6" x2="208.8" y2="522.6" stroke="#555" stroke-width="1.2"/>
<line x1="300.5" y1="516.6" x2="300.5" y2="522.6" stroke="#555" stroke-width="1.2"/>
<text x="166.0" y="523.1" text-anchor="end" font-size="8.5" fill="#333">n=64</text>
<text x="231.0" y="523.1" font-size="8" fill="#555">6.10 µs</text>
<rect x="170.0" y="540.2" width="34.7" height="31.2" rx="2" fill="#54A24B" opacity="0.80"/>
<line x1="195.4" y1="555.9" x2="323.6" y2="555.9" stroke="#555" stroke-width="1.2"/>
<line x1="195.4" y1="552.9" x2="195.4" y2="558.9" stroke="#555" stroke-width="1.2"/>
<line x1="323.6" y1="552.9" x2="323.6" y2="558.9" stroke="#555" stroke-width="1.2"/>
<text x="166.0" y="559.4" text-anchor="end" font-size="8.5" fill="#333">n=512</text>
<text x="208.7" y="559.4" font-size="8" fill="#555">4.16 µs</text>
<rect x="170.0" y="576.5" width="104.4" height="31.2" rx="2" fill="#54A24B" opacity="0.80"/>
<line x1="267.4" y1="592.1" x2="315.1" y2="592.1" stroke="#555" stroke-width="1.2"/>
<line x1="267.4" y1="589.1" x2="267.4" y2="595.1" stroke="#555" stroke-width="1.2"/>
<line x1="315.1" y1="589.1" x2="315.1" y2="595.1" stroke="#555" stroke-width="1.2"/>
<text x="166.0" y="595.6" text-anchor="end" font-size="8.5" fill="#333">n=4096</text>
<text x="278.4" y="595.6" font-size="8" fill="#555">13.78 µs</text>
<rect x="170.0" y="612.8" width="258.4" height="31.2" rx="2" fill="#54A24B" opacity="0.80"/>
<line x1="422.6" y1="628.4" x2="437.4" y2="628.4" stroke="#555" stroke-width="1.2"/>
<line x1="422.6" y1="625.4" x2="422.6" y2="631.4" stroke="#555" stroke-width="1.2"/>
<line x1="437.4" y1="625.4" x2="437.4" y2="631.4" stroke="#555" stroke-width="1.2"/>
<text x="166.0" y="631.9" text-anchor="end" font-size="8.5" fill="#333">n=32768</text>
<text x="432.4" y="631.9" font-size="8" fill="#555">194.89 µs</text>
<line x1="170.0" y1="644.0" x2="450.0" y2="644.0" stroke="#BBB" stroke-width="1"/>
<rect x="484.0" y="470.0" width="472.0" height="206.0" rx="6" fill="white" stroke="#DDD" stroke-width="1"/>
<text x="720.0" y="488.0" text-anchor="middle" font-size="10.5" font-weight="bold" fill="#333">layer_normalize (2-D)</text>
<line x1="675.3" y1="504.0" x2="675.3" y2="644.0" stroke="#EEE" stroke-width="1"/>
<text x="675.3" y="656.0" text-anchor="middle" font-size="8" fill="#888">5.00 µs</text>
<line x1="704.2" y1="504.0" x2="704.2" y2="644.0" stroke="#EEE" stroke-width="1"/>
<text x="704.2" y="656.0" text-anchor="middle" font-size="8" fill="#888">10.00 µs</text>
<line x1="733.0" y1="504.0" x2="733.0" y2="644.0" stroke="#EEE" stroke-width="1"/>
<text x="733.0" y="656.0" text-anchor="middle" font-size="8" fill="#888">20.00 µs</text>
<line x1="771.2" y1="504.0" x2="771.2" y2="644.0" stroke="#EEE" stroke-width="1"/>
<text x="771.2" y="656.0" text-anchor="middle" font-size="8" fill="#888">50.00 µs</text>
<line x1="800.1" y1="504.0" x2="800.1" y2="644.0" stroke="#EEE" stroke-width="1"/>
<text x="800.1" y="656.0" text-anchor="middle" font-size="8" fill="#888">100.00 µs</text>
<line x1="828.9" y1="504.0" x2="828.9" y2="644.0" stroke="#EEE" stroke-width="1"/>
<text x="828.9" y="656.0" text-anchor="middle" font-size="8" fill="#888">200.00 µs</text>
<line x1="867.1" y1="504.0" x2="867.1" y2="644.0" stroke="#EEE" stroke-width="1"/>
<text x="867.1" y="656.0" text-anchor="middle" font-size="8" fill="#888">500.00 µs</text>
<line x1="895.9" y1="504.0" x2="895.9" y2="644.0" stroke="#EEE" stroke-width="1"/>
<text x="895.9" y="656.0" text-anchor="middle" font-size="8" fill="#888">1.00 ms</text>
<line x1="924.8" y1="504.0" x2="924.8" y2="644.0" stroke="#EEE" stroke-width="1"/>
<text x="924.8" y="656.0" text-anchor="middle" font-size="8" fill="#888">2.00 ms</text>
<rect x="650.0" y="504.0" width="24.9" height="31.2" rx="2" fill="#B279A2" opacity="0.80"/>
<line x1="666.8" y1="519.6" x2="735.1" y2="519.6" stroke="#555" stroke-width="1.2"/>
<line x1="666.8" y1="516.6" x2="666.8" y2="522.6" stroke="#555" stroke-width="1.2"/>
<line x1="735.1" y1="516.6" x2="735.1" y2="522.6" stroke="#555" stroke-width="1.2"/>
<text x="646.0" y="523.1" text-anchor="end" font-size="8.5" fill="#333">32×16</text>
<text x="678.9" y="523.1" font-size="8" fill="#555">4.95 µs</text>
<rect x="650.0" y="540.2" width="138.5" height="31.2" rx="2" fill="#B279A2" opacity="0.80"/>
<line x1="782.0" y1="555.9" x2="800.4" y2="555.9" stroke="#555" stroke-width="1.2"/>
<line x1="782.0" y1="552.9" x2="782.0" y2="558.9" stroke="#555" stroke-width="1.2"/>
<line x1="800.4" y1="552.9" x2="800.4" y2="558.9" stroke="#555" stroke-width="1.2"/>
<text x="646.0" y="559.4" text-anchor="end" font-size="8.5" fill="#333">128×64</text>
<text x="792.5" y="559.4" font-size="8" fill="#555">75.78 µs</text>
<rect x="650.0" y="576.5" width="208.8" height="31.2" rx="2" fill="#B279A2" opacity="0.80"/>
<line x1="854.5" y1="592.1" x2="863.2" y2="592.1" stroke="#555" stroke-width="1.2"/>
<line x1="854.5" y1="589.1" x2="854.5" y2="595.1" stroke="#555" stroke-width="1.2"/>
<line x1="863.2" y1="589.1" x2="863.2" y2="595.1" stroke="#555" stroke-width="1.2"/>
<text x="646.0" y="595.6" text-anchor="end" font-size="8.5" fill="#333">512×128</text>
<text x="862.8" y="595.6" font-size="8" fill="#555">410.34 µs</text>
<rect x="650.0" y="612.8" width="264.5" height="31.2" rx="2" fill="#B279A2" opacity="0.80"/>
<line x1="911.0" y1="628.4" x2="922.7" y2="628.4" stroke="#555" stroke-width="1.2"/>
<line x1="911.0" y1="625.4" x2="911.0" y2="631.4" stroke="#555" stroke-width="1.2"/>
<line x1="922.7" y1="625.4" x2="922.7" y2="631.4" stroke="#555" stroke-width="1.2"/>
<text x="646.0" y="631.9" text-anchor="end" font-size="8.5" fill="#333">1000×256</text>
<text x="918.5" y="631.9" font-size="8" fill="#555">1.56 ms</text>
<line x1="650.0" y1="644.0" x2="930.0" y2="644.0" stroke="#BBB" stroke-width="1"/>
</svg>
